<?xml version="1.0" encoding="UTF-8" standalone="no"?><svg xmlns="http://www.w3.org/2000/svg" xmlns:xlink="http://www.w3.org/1999/xlink" clip-rule="evenodd" stroke-miterlimit="10" viewBox="0 0 1024 768"><desc>SVG generated by Keynote</desc><defs></defs><g transform="matrix(1.00, 0.00, -0.00, -1.00, 0.0, 768.0)"><path d="M 0.0 768.0 L 1024.0 768.0 L 1024.0 0.0 L 0.0 0.0 Z M 0.0 768.0 " fill="#FEFFFE"></path><g><clipPath id="clip0x6080012aa380"><path d="M 350.0 186.0 L 674.0 186.0 L 674.0 582.0 L 350.0 582.0 Z M 350.0 186.0 "></path></clipPath><g clip-path="url(#clip0x6080012aa380)"><path d="M 547.8 442.2 C 547.8 442.2 607.0 394.1 641.2 416.9 L 631.0 376.3 L 608.4 347.5 C 603.9 388.4 528.8 403.0 528.8 403.0 Z M 547.8 442.2 " fill="#221F1F"></path><path d="M 491.9 456.1 C 491.9 456.1 509.1 530.4 473.7 551.1 L 514.6 559.7 L 550.3 552.0 C 515.6 530.1 535.5 456.1 535.5 456.1 L 512.0 458.4 Z M 491.9 456.1 " fill="#221F1F"></path><path d="M 491.6 400.5 C 491.6 400.5 416.2 389.3 410.0 348.7 L 386.9 383.6 L 381.0 419.7 C 414.1 395.4 475.6 441.0 475.6 441.0 Z M 491.6 400.5 " fill="#221F1F"></path><path d="M 663.4 430.5 C 663.4 514.2 595.6 582.0 512.0 582.0 C 428.4 582.0 360.6 514.2 360.6 430.5 C 360.6 346.8 428.4 279.0 512.0 279.0 C 595.6 279.0 663.4 346.8 663.4 430.5 M 633.1 430.5 C 633.1 363.6 578.9 309.3 512.0 309.3 C 445.1 309.3 390.9 363.6 390.9 430.5 C 390.9 497.4 445.1 551.7 512.0 551.7 C 578.9 551.7 633.1 497.4 633.1 430.5 " fill="#221F1F"></path><path d="M 554.5 430.5 C 554.5 454.0 535.5 473.1 512.0 473.1 C 488.5 473.1 469.5 454.0 469.5 430.5 C 469.5 407.0 488.5 387.9 512.0 387.9 C 535.5 387.9 554.5 407.0 554.5 430.5 M 539.6 430.5 C 539.6 415.3 527.2 402.9 512.0 402.9 C 496.8 402.9 484.4 415.3 484.4 430.5 C 484.4 445.7 496.8 458.1 512.0 458.1 C 527.2 458.1 539.6 445.7 539.6 430.5 " fill="#221F1F"></path><path d="M 0.0 0.0 C 0.0 23.5 -19.0 42.5 -42.5 42.5 C -65.9 42.5 -84.9 23.5 -84.9 0.0 C -84.9 -23.5 -65.9 -42.5 -42.5 -42.5 C -19.0 -42.5 0.0 -23.5 0.0 0.0 Z M -14.9 0.0 C -14.9 -15.2 -27.3 -27.5 -42.5 -27.5 C -57.7 -27.5 -70.0 -15.2 -70.0 0.0 C -70.0 15.2 -57.7 27.5 -42.5 27.5 C -27.3 27.5 -14.9 15.2 -14.9 0.0 Z M -14.9 0.0 " fill="none" stroke="#FDFDFD" stroke-width="2.86" transform="matrix(1.00, 0.00, 0.00, 1.00, 554.5, 430.5)"></path><path d="M 509.3 557.7 " fill="#221F1F"></path><path d="M 0.0 0.0 " fill="none" stroke="#221F1F" stroke-width="2.78" transform="matrix(1.00, 0.00, 0.00, 1.00, 509.3, 557.7)"></path><text xml:space="preserve" font-family="Impact,Impact" font-weight="bold" font-size="80.3" fill="#221F1F" transform="matrix(1.00, 0.00, -0.00, -1.00, 350.0, 186.0)">r</text><text xml:space="preserve" font-family="Impact,Impact" font-weight="bold" font-size="80.3" fill="#221F1F" transform="matrix(1.00, 0.00, -0.00, -1.00, 378.8, 186.0)">o</text><text xml:space="preserve" font-family="Impact,Impact" font-weight="bold" font-size="80.3" fill="#221F1F" transform="matrix(1.00, 0.00, -0.00, -1.00, 419.9, 186.0)">a</text><text xml:space="preserve" font-family="Impact,Impact" font-weight="bold" font-size="80.3" fill="#221F1F" transform="matrix(1.00, 0.00, -0.00, -1.00, 460.4, 186.0)">d</text><text xml:space="preserve" font-family="Impact,Impact" font-weight="bold" font-size="80.3" fill="#F37F1F" transform="matrix(1.00, 0.00, -0.00, -1.00, 502.2, 186.0)">r</text><text xml:space="preserve" font-family="Impact,Impact" font-weight="bold" font-size="80.3" fill="#F37F1F" transform="matrix(1.00, 0.00, -0.00, -1.00, 531.0, 186.0)">u</text><text xml:space="preserve" font-family="Impact,Impact" font-weight="bold" font-size="80.3" fill="#F37F1F" transform="matrix(1.00, 0.00, -0.00, -1.00, 573.0, 186.0)">l</text><text xml:space="preserve" font-family="Impact,Impact" font-weight="bold" font-size="80.3" fill="#F37F1F" transform="matrix(1.00, 0.00, -0.00, -1.00, 595.1, 186.0)">e</text><text xml:space="preserve" font-family="Impact,Impact" font-weight="bold" font-size="80.3" fill="#F37F1F" transform="matrix(1.00, 0.00, -0.00, -1.00, 636.2, 186.0)">s</text></g></g></g></svg>