<?xml version="1.0" encoding="UTF-8" standalone="no"?><svg xmlns="http://www.w3.org/2000/svg" xmlns:xlink="http://www.w3.org/1999/xlink" clip-rule="evenodd" stroke-miterlimit="10" viewBox="0 0 1024 768"><desc>SVG generated by Keynote</desc><defs></defs><g transform="matrix(1.00, 0.00, -0.00, -1.00, 0.0, 768.0)"><path d="M 0.0 768.0 L 1024.0 768.0 L 1024.0 0.0 L 0.0 0.0 Z M 0.0 768.0 " fill="#000000"></path><text xml:space="preserve" font-family="Impact,Impact" font-weight="bold" font-size="80.0" fill="#FEFFFF" transform="matrix(1.00, 0.00, -0.00, -1.00, 280.5, 351.9)">&gt;</text><text xml:space="preserve" font-family="Impact,Impact" font-weight="bold" font-size="80.0" fill="#FEFFFF" transform="matrix(1.00, 0.00, -0.00, -1.00, 323.1, 351.9)"> </text><text xml:space="preserve" font-family="Impact,Impact" font-weight="bold" font-size="80.0" fill="#FEFFFF" transform="matrix(1.00, 0.00, -0.00, -1.00, 337.3, 351.9)">2</text><text xml:space="preserve" font-family="Impact,Impact" font-weight="bold" font-size="80.0" fill="#FEFFFF" transform="matrix(1.00, 0.00, -0.00, -1.00, 377.4, 351.9)"> </text><text xml:space="preserve" font-family="Impact,Impact" font-weight="bold" font-size="80.0" fill="#FEFFFF" transform="matrix(1.00, 0.00, -0.00, -1.00, 391.5, 351.9)">M</text><text xml:space="preserve" font-family="Impact,Impact" font-weight="bold" font-size="80.0" fill="#FEFFFF" transform="matrix(1.00, 0.00, -0.00, -1.00, 448.9, 351.9)">i</text><text xml:space="preserve" font-family="Impact,Impact" font-weight="bold" font-size="80.0" fill="#FEFFFF" transform="matrix(1.00, 0.00, -0.00, -1.00, 470.8, 351.9)">l</text><text xml:space="preserve" font-family="Impact,Impact" font-weight="bold" font-size="80.0" fill="#FEFFFF" transform="matrix(1.00, 0.00, -0.00, -1.00, 492.7, 351.9)">l</text><text xml:space="preserve" font-family="Impact,Impact" font-weight="bold" font-size="80.0" fill="#FEFFFF" transform="matrix(1.00, 0.00, -0.00, -1.00, 514.6, 351.9)">i</text><text xml:space="preserve" font-family="Impact,Impact" font-weight="bold" font-size="80.0" fill="#FEFFFF" transform="matrix(1.00, 0.00, -0.00, -1.00, 536.5, 351.9)">o</text><text xml:space="preserve" font-family="Impact,Impact" font-weight="bold" font-size="80.0" fill="#FEFFFF" transform="matrix(1.00, 0.00, -0.00, -1.00, 577.4, 351.9)">n</text><text xml:space="preserve" font-family="Impact,Impact" font-weight="bold" font-size="80.0" fill="#FEFFFF" transform="matrix(1.00, 0.00, -0.00, -1.00, 619.2, 351.9)"> </text><text xml:space="preserve" font-family="Impact,Impact" font-weight="bold" font-size="80.0" fill="#FEFFFF" transform="matrix(1.00, 0.00, -0.00, -1.00, 633.4, 351.9)">/</text><text xml:space="preserve" font-family="Impact,Impact" font-weight="bold" font-size="80.0" fill="#FEFFFF" transform="matrix(1.00, 0.00, -0.00, -1.00, 665.0, 351.9)"> </text><text xml:space="preserve" font-family="Impact,Impact" font-weight="bold" font-size="80.0" fill="#FEFFFF" transform="matrix(1.00, 0.00, -0.00, -1.00, 679.1, 351.9)">y</text><text xml:space="preserve" font-family="Impact,Impact" font-weight="bold" font-size="80.0" fill="#FEFFFF" transform="matrix(1.00, 0.00, -0.00, -1.00, 715.0, 351.9)">r</text></g></svg>