<?xml version="1.0" encoding="UTF-8" standalone="no"?><svg xmlns="http://www.w3.org/2000/svg" xmlns:xlink="http://www.w3.org/1999/xlink" clip-rule="evenodd" stroke-miterlimit="10" viewBox="0 0 1024 768"><desc>SVG generated by Keynote</desc><defs></defs><g transform="matrix(1.00, 0.00, -0.00, -1.00, 0.0, 768.0)"><path d="M 0.0 768.0 L 1024.0 768.0 L 1024.0 0.0 L 0.0 0.0 Z M 0.0 768.0 " fill="#000000"></path><text xml:space="preserve" font-family="Impact,Impact" font-weight="bold" font-size="80.0" fill="#FEFFFF" transform="matrix(1.00, 0.00, -0.00, -1.00, 130.7, 400.9)">A</text><text xml:space="preserve" font-family="Impact,Impact" font-weight="bold" font-size="80.0" fill="#FEFFFF" transform="matrix(1.00, 0.00, -0.00, -1.00, 171.3, 400.9)"> </text><text xml:space="preserve" font-family="Impact,Impact" font-weight="bold" font-size="80.0" fill="#FEFFFF" transform="matrix(1.00, 0.00, -0.00, -1.00, 185.4, 400.9)">m</text><text xml:space="preserve" font-family="Impact,Impact" font-weight="bold" font-size="80.0" fill="#FEFFFF" transform="matrix(1.00, 0.00, -0.00, -1.00, 247.1, 400.9)">o</text><text xml:space="preserve" font-family="Impact,Impact" font-weight="bold" font-size="80.0" fill="#FEFFFF" transform="matrix(1.00, 0.00, -0.00, -1.00, 288.0, 400.9)">r</text><text xml:space="preserve" font-family="Impact,Impact" font-weight="bold" font-size="80.0" fill="#FEFFFF" transform="matrix(1.00, 0.00, -0.00, -1.00, 316.6, 400.9)">e</text><text xml:space="preserve" font-family="Impact,Impact" font-weight="bold" font-size="80.0" fill="#FEFFFF" transform="matrix(1.00, 0.00, -0.00, -1.00, 357.6, 400.9)"> </text><text xml:space="preserve" font-family="Impact,Impact" font-weight="bold" font-size="80.0" fill="#FEFFFF" transform="matrix(1.00, 0.00, -0.00, -1.00, 371.7, 400.9)">e</text><text xml:space="preserve" font-family="Impact,Impact" font-weight="bold" font-size="80.0" fill="#FEFFFF" transform="matrix(1.00, 0.00, -0.00, -1.00, 412.6, 400.9)">d</text><text xml:space="preserve" font-family="Impact,Impact" font-weight="bold" font-size="80.0" fill="#FEFFFF" transform="matrix(1.00, 0.00, -0.00, -1.00, 454.1, 400.9)">u</text><text xml:space="preserve" font-family="Impact,Impact" font-weight="bold" font-size="80.0" fill="#FEFFFF" transform="matrix(1.00, 0.00, -0.00, -1.00, 496.0, 400.9)">c</text><text xml:space="preserve" font-family="Impact,Impact" font-weight="bold" font-size="80.0" fill="#FEFFFF" transform="matrix(1.00, 0.00, -0.00, -1.00, 535.5, 400.9)">a</text><text xml:space="preserve" font-family="Impact,Impact" font-weight="bold" font-size="80.0" fill="#FEFFFF" transform="matrix(1.00, 0.00, -0.00, -1.00, 575.8, 400.9)">t</text><text xml:space="preserve" font-family="Impact,Impact" font-weight="bold" font-size="80.0" fill="#FEFFFF" transform="matrix(1.00, 0.00, -0.00, -1.00, 600.2, 400.9)">e</text><text xml:space="preserve" font-family="Impact,Impact" font-weight="bold" font-size="80.0" fill="#FEFFFF" transform="matrix(1.00, 0.00, -0.00, -1.00, 641.1, 400.9)">d</text><text xml:space="preserve" font-family="Impact,Impact" font-weight="bold" font-size="80.0" fill="#FEFFFF" transform="matrix(1.00, 0.00, -0.00, -1.00, 682.6, 400.9)"> </text><text xml:space="preserve" font-family="Impact,Impact" font-weight="bold" font-size="80.0" fill="#FEFFFF" transform="matrix(1.00, 0.00, -0.00, -1.00, 696.7, 400.9)">d</text><text xml:space="preserve" font-family="Impact,Impact" font-weight="bold" font-size="80.0" fill="#FEFFFF" transform="matrix(1.00, 0.00, -0.00, -1.00, 738.2, 400.9)">r</text><text xml:space="preserve" font-family="Impact,Impact" font-weight="bold" font-size="80.0" fill="#FEFFFF" transform="matrix(1.00, 0.00, -0.00, -1.00, 766.9, 400.9)">i</text><text xml:space="preserve" font-family="Impact,Impact" font-weight="bold" font-size="80.0" fill="#FEFFFF" transform="matrix(1.00, 0.00, -0.00, -1.00, 788.8, 400.9)">v</text><text xml:space="preserve" font-family="Impact,Impact" font-weight="bold" font-size="80.0" fill="#FEFFFF" transform="matrix(1.00, 0.00, -0.00, -1.00, 823.7, 400.9)">e</text><text xml:space="preserve" font-family="Impact,Impact" font-weight="bold" font-size="80.0" fill="#FEFFFF" transform="matrix(1.00, 0.00, -0.00, -1.00, 864.6, 400.9)">r</text><text xml:space="preserve" font-family="Impact,Impact" font-weight="bold" font-size="80.0" fill="#FEFFFF" transform="matrix(1.00, 0.00, -0.00, -1.00, 893.3, 400.9)"> </text><text xml:space="preserve" font-family="Impact,Impact" font-weight="bold" font-size="80.0" fill="#FEFFFF" transform="matrix(1.00, 0.00, -0.00, -1.00, 257.3, 302.9)">i</text><text xml:space="preserve" font-family="Impact,Impact" font-weight="bold" font-size="80.0" fill="#FEFFFF" transform="matrix(1.00, 0.00, -0.00, -1.00, 279.2, 302.9)">s</text><text xml:space="preserve" font-family="Impact,Impact" font-weight="bold" font-size="80.0" fill="#FEFFFF" transform="matrix(1.00, 0.00, -0.00, -1.00, 316.8, 302.9)"> </text><text xml:space="preserve" font-family="Impact,Impact" font-weight="bold" font-size="80.0" fill="#FEFFFF" transform="matrix(1.00, 0.00, -0.00, -1.00, 331.0, 302.9)">a</text><text xml:space="preserve" font-family="Impact,Impact" font-weight="bold" font-size="80.0" fill="#FEFFFF" transform="matrix(1.00, 0.00, -0.00, -1.00, 371.3, 302.9)"> </text><text xml:space="preserve" font-family="Impact,Impact" font-weight="bold" font-size="80.0" fill="#FEFFFF" transform="matrix(1.00, 0.00, -0.00, -1.00, 385.4, 302.9)">s</text><text xml:space="preserve" font-family="Impact,Impact" font-weight="bold" font-size="80.0" fill="#FEFFFF" transform="matrix(1.00, 0.00, -0.00, -1.00, 423.0, 302.9)">a</text><text xml:space="preserve" font-family="Impact,Impact" font-weight="bold" font-size="80.0" fill="#FEFFFF" transform="matrix(1.00, 0.00, -0.00, -1.00, 463.3, 302.9)">f</text><text xml:space="preserve" font-family="Impact,Impact" font-weight="bold" font-size="80.0" fill="#FEFFFF" transform="matrix(1.00, 0.00, -0.00, -1.00, 486.5, 302.9)">e</text><text xml:space="preserve" font-family="Impact,Impact" font-weight="bold" font-size="80.0" fill="#FEFFFF" transform="matrix(1.00, 0.00, -0.00, -1.00, 527.4, 302.9)">r</text><text xml:space="preserve" font-family="Impact,Impact" font-weight="bold" font-size="80.0" fill="#FEFFFF" transform="matrix(1.00, 0.00, -0.00, -1.00, 556.0, 302.9)"> </text><text xml:space="preserve" font-family="Impact,Impact" font-weight="bold" font-size="80.0" fill="#FEFFFF" transform="matrix(1.00, 0.00, -0.00, -1.00, 570.1, 302.9)">d</text><text xml:space="preserve" font-family="Impact,Impact" font-weight="bold" font-size="80.0" fill="#FEFFFF" transform="matrix(1.00, 0.00, -0.00, -1.00, 611.6, 302.9)">r</text><text xml:space="preserve" font-family="Impact,Impact" font-weight="bold" font-size="80.0" fill="#FEFFFF" transform="matrix(1.00, 0.00, -0.00, -1.00, 640.3, 302.9)">i</text><text xml:space="preserve" font-family="Impact,Impact" font-weight="bold" font-size="80.0" fill="#FEFFFF" transform="matrix(1.00, 0.00, -0.00, -1.00, 662.2, 302.9)">v</text><text xml:space="preserve" font-family="Impact,Impact" font-weight="bold" font-size="80.0" fill="#FEFFFF" transform="matrix(1.00, 0.00, -0.00, -1.00, 697.1, 302.9)">e</text><text xml:space="preserve" font-family="Impact,Impact" font-weight="bold" font-size="80.0" fill="#FEFFFF" transform="matrix(1.00, 0.00, -0.00, -1.00, 738.1, 302.9)">r</text></g></svg>