<?xml version="1.0" encoding="UTF-8" standalone="no"?><svg xmlns="http://www.w3.org/2000/svg" xmlns:xlink="http://www.w3.org/1999/xlink" clip-rule="evenodd" stroke-miterlimit="10" viewBox="0 0 1024 768"><desc>SVG generated by Keynote</desc><defs></defs><g transform="matrix(1.00, 0.00, -0.00, -1.00, 0.0, 768.0)"><path d="M 0.0 768.0 L 1024.0 768.0 L 1024.0 0.0 L 0.0 0.0 Z M 0.0 768.0 " fill="#FEFFFE"></path><g><clipPath id="clip0x6080010b57e0"><path d="M 132.0 86.0 L 892.0 86.0 L 892.0 682.0 L 132.0 682.0 Z M 132.0 86.0 "></path></clipPath><g clip-path="url(#clip0x6080010b57e0)"><g><g><clipPath id="clip0x6080010b2780"><path d="M 132.0 86.0 L 892.0 86.0 L 892.0 682.0 L 132.0 682.0 Z M 132.0 86.0 "></path></clipPath><g clip-path="url(#clip0x6080010b2780)"><path d="M 153.0 681.4 C 153.0 681.4 132.6 681.4 132.6 661.0 L 132.6 107.0 C 132.6 107.0 132.6 86.6 153.0 86.6 L 437.1 86.6 C 437.1 86.6 457.5 86.6 457.5 107.0 L 457.5 661.0 C 457.5 661.0 457.5 681.4 437.1 681.4 Z M 153.0 681.4 " fill="#221F1F"></path><path d="M 0.0 0.0 C 0.0 0.0 -20.4 0.0 -20.4 -20.4 L -20.4 -574.5 C -20.4 -574.5 -20.4 -594.9 0.0 -594.9 L 284.0 -594.9 C 284.0 -594.9 304.4 -594.9 304.4 -574.5 L 304.4 -20.4 C 304.4 -20.4 304.4 0.0 284.0 0.0 L 0.0 0.0 Z M 0.0 0.0 " fill="none" stroke="#221F1F" stroke-width="1.20" transform="matrix(1.00, 0.00, 0.00, 1.00, 153.0, 681.4)"></path><path d="M 167.2 624.6 C 167.2 624.6 150.2 624.6 150.2 607.6 L 150.2 166.5 C 150.2 166.5 150.2 149.5 167.2 149.5 L 422.9 149.5 C 422.9 149.5 439.9 149.5 439.9 166.5 L 439.9 607.6 C 439.9 607.6 439.9 624.6 422.9 624.6 Z M 167.2 624.6 " fill="#FDFDFD"></path></g></g><g><clipPath id="clip0x6080010bc800"><path d="M 167.2 624.6 C 167.2 624.6 150.2 624.6 150.2 607.6 L 150.2 607.6 L 150.2 166.5 C 150.2 166.5 150.2 149.5 167.2 149.5 L 167.2 149.5 L 422.9 149.5 C 422.9 149.5 439.9 149.5 439.9 166.5 L 439.9 166.5 L 439.9 607.6 C 439.9 607.6 439.9 624.6 422.9 624.6 L 422.9 624.6 Z M 167.2 624.6 "></path></clipPath><g clip-path="url(#clip0x6080010bc800)"><g><clipPath id="clip0x6080010baa60"><path d="M 132.0 86.0 L 892.0 86.0 L 892.0 682.0 L 132.0 682.0 Z M 132.0 86.0 "></path></clipPath><g clip-path="url(#clip0x6080010baa60)"><g><g><clipPath id="clip0x6080010af9c0"><path d="M 150.0 565.4 L 440.0 565.4 L 440.0 625.0 L 150.0 625.0 Z M 150.0 565.4 "></path></clipPath><g clip-path="url(#clip0x6080010af9c0)"><path d="M 138.1 635.9 L 452.2 635.9 L 452.2 565.4 L 138.1 565.4 Z M 138.1 635.9 " fill="#221F1F" fill-opacity="0.50"></path></g></g></g><path d="M 140.1 571.3 L 446.3 571.3 L 446.3 634.0 L 140.1 634.0 Z M 140.1 571.3 " fill="#FDFDFD"></path><path d="M 8.1 485.4 L 314.1 485.4 L 314.1 548.1 L 8.1 548.1 Z M 8.1 485.4 " fill="none" stroke="#221F1F" stroke-width="2.00" transform="matrix(1.00, 0.00, 0.00, 1.00, 132.0, 86.0)"></path></g></g></g></g><g><clipPath id="clip0x6000012ae4c0"><path d="M 132.0 86.0 L 892.0 86.0 L 892.0 682.0 L 132.0 682.0 Z M 132.0 86.0 "></path></clipPath><g clip-path="url(#clip0x6000012ae4c0)"><path d="M 0.0 0.0 C 0.0 0.0 -17.0 0.0 -17.0 -17.0 L -17.0 -458.2 C -17.0 -458.2 -17.0 -475.2 0.0 -475.2 L 255.5 -475.2 C 255.5 -475.2 272.5 -475.2 272.5 -458.2 L 272.5 -17.0 C 272.5 -17.0 272.5 0.0 255.5 0.0 L 0.0 0.0 Z M 0.0 0.0 " fill="none" stroke="#221F1F" stroke-width="1.00" transform="matrix(1.00, 0.00, 0.00, 1.00, 167.2, 624.6)"></path><path d="M 259.9 133.1 C 259.9 133.1 245.9 133.1 245.9 119.1 L 245.9 116.4 C 245.9 116.4 245.9 102.4 259.9 102.4 L 330.2 102.4 C 330.2 102.4 344.2 102.4 344.2 116.4 L 344.2 119.1 C 344.2 119.1 344.2 133.1 330.2 133.1 Z M 259.9 133.1 " fill="#FDFDFD"></path><path d="M 0.0 0.0 C 0.0 0.0 -14.0 0.0 -14.0 -14.0 L -14.0 -16.7 C -14.0 -16.7 -14.0 -30.7 0.0 -30.7 L 70.2 -30.7 C 70.2 -30.7 84.2 -30.7 84.2 -16.7 L 84.2 -14.0 C 84.2 -14.0 84.2 0.0 70.2 0.0 L 0.0 0.0 Z M 0.0 0.0 " fill="none" stroke="#221F1F" stroke-width="1.00" transform="matrix(1.00, 0.00, 0.00, 1.00, 259.9, 133.1)"></path><path d="M 248.1 642.8 L 342.1 642.8 L 342.1 658.0 L 248.1 658.0 Z M 248.1 642.8 " fill="#FDFDFD"></path><path d="M 116.0 556.9 L 210.0 556.9 L 210.0 572.1 L 116.0 572.1 Z M 116.0 556.9 " fill="none" stroke="#221F1F" stroke-width="1.00" transform="matrix(1.00, 0.00, 0.00, 1.00, 132.0, 86.0)"></path><path d="M 228.4 429.6 C 257.1 429.6 280.4 452.8 280.4 481.5 C 280.4 510.2 257.1 533.4 228.4 533.4 C 199.7 533.4 176.5 510.2 176.5 481.5 C 176.5 452.8 199.7 429.6 228.4 429.6 " fill="#221F1F"></path><path d="M 0.0 0.0 C 28.7 0.0 51.9 23.3 51.9 51.9 C 51.9 80.6 28.7 103.9 0.0 103.9 C -28.7 103.9 -51.9 80.6 -51.9 51.9 C -51.9 23.3 -28.7 0.0 0.0 0.0 Z M 0.0 0.0 " fill="none" stroke="#221F1F" stroke-width="1.00" transform="matrix(1.00, 0.00, 0.00, 1.00, 228.4, 429.6)"></path><path d="M 353.2 429.6 C 381.9 429.6 405.2 452.8 405.2 481.5 C 405.2 510.2 381.9 533.4 353.2 533.4 C 324.5 533.4 301.2 510.2 301.2 481.5 C 301.2 452.8 324.5 429.6 353.2 429.6 " fill="#221F1F"></path><path d="M 0.0 0.0 C 28.7 0.0 51.9 23.3 51.9 51.9 C 51.9 80.6 28.7 103.9 0.0 103.9 C -28.7 103.9 -51.9 80.6 -51.9 51.9 C -51.9 23.3 -28.7 0.0 0.0 0.0 Z M 0.0 0.0 " fill="none" stroke="#221F1F" stroke-width="1.00" transform="matrix(1.00, 0.00, 0.00, 1.00, 353.2, 429.6)"></path><path d="M 353.2 253.9 C 381.9 253.9 405.2 277.1 405.2 305.8 C 405.2 334.5 381.9 357.7 353.2 357.7 C 324.5 357.7 301.2 334.5 301.2 305.8 C 301.2 277.1 324.5 253.9 353.2 253.9 " fill="#221F1F"></path><path d="M 0.0 0.0 C 28.7 0.0 51.9 23.3 51.9 51.9 C 51.9 80.6 28.7 103.9 0.0 103.9 C -28.7 103.9 -51.9 80.6 -51.9 51.9 C -51.9 23.3 -28.7 0.0 0.0 0.0 Z M 0.0 0.0 " fill="none" stroke="#221F1F" stroke-width="1.00" transform="matrix(1.00, 0.00, 0.00, 1.00, 353.2, 253.9)"></path><path d="M 228.4 253.9 C 257.1 253.9 280.4 277.1 280.4 305.8 C 280.4 334.5 257.1 357.7 228.4 357.7 C 199.7 357.7 176.5 334.5 176.5 305.8 C 176.5 277.1 199.7 253.9 228.4 253.9 " fill="#221F1F"></path><path d="M 0.0 0.0 C 28.7 0.0 51.9 23.3 51.9 51.9 C 51.9 80.6 28.7 103.9 0.0 103.9 C -28.7 103.9 -51.9 80.6 -51.9 51.9 C -51.9 23.3 -28.7 0.0 0.0 0.0 Z M 0.0 0.0 " fill="none" stroke="#221F1F" stroke-width="1.00" transform="matrix(1.00, 0.00, 0.00, 1.00, 228.4, 253.9)"></path><path d="M 192.6 600.6 C 192.6 600.6 200.2 594.4 204.6 597.4 L 203.3 592.2 L 200.4 588.5 C 199.8 593.7 190.1 595.6 190.1 595.6 Z M 192.6 600.6 " fill="#221F1F"></path><path d="M 185.4 602.4 C 185.4 602.4 187.6 612.0 183.1 614.6 L 188.3 615.7 L 192.9 614.7 C 188.5 611.9 191.0 602.4 191.0 602.4 L 188.0 602.7 Z M 185.4 602.4 " fill="#221F1F"></path><path d="M 185.4 595.3 C 185.4 595.3 175.7 593.8 174.9 588.6 L 171.9 593.1 L 171.1 597.7 C 175.4 594.6 183.3 600.5 183.3 600.5 Z M 185.4 595.3 " fill="#221F1F"></path><path d="M 207.5 599.1 C 207.5 609.9 198.7 618.6 188.0 618.6 C 177.2 618.6 168.5 609.9 168.5 599.1 C 168.5 588.4 177.2 579.7 188.0 579.7 C 198.7 579.7 207.5 588.4 207.5 599.1 M 203.6 599.1 C 203.6 590.5 196.6 583.6 188.0 583.6 C 179.4 583.6 172.4 590.5 172.4 599.1 C 172.4 607.7 179.4 614.7 188.0 614.7 C 196.6 614.7 203.6 607.7 203.6 599.1 " fill="#221F1F"></path><path d="M 193.5 599.1 C 193.5 602.1 191.0 604.6 188.0 604.6 C 185.0 604.6 182.5 602.1 182.5 599.1 C 182.5 596.1 185.0 593.7 188.0 593.7 C 191.0 593.7 193.5 596.1 193.5 599.1 M 191.5 599.1 C 191.5 597.2 189.9 595.6 188.0 595.6 C 186.0 595.6 184.4 597.2 184.4 599.1 C 184.4 601.1 186.0 602.7 188.0 602.7 C 189.9 602.7 191.5 601.1 191.5 599.1 " fill="#221F1F"></path><path d="M 0.0 0.0 C 0.0 3.0 -2.4 5.5 -5.5 5.5 C -8.5 5.5 -10.9 3.0 -10.9 0.0 C -10.9 -3.0 -8.5 -5.5 -5.5 -5.5 C -2.4 -5.5 0.0 -3.0 0.0 0.0 Z M -1.9 0.0 C -1.9 -2.0 -3.5 -3.5 -5.5 -3.5 C -7.4 -3.5 -9.0 -2.0 -9.0 0.0 C -9.0 2.0 -7.4 3.5 -5.5 3.5 C -3.5 3.5 -1.9 2.0 -1.9 0.0 Z M -1.9 0.0 " fill="none" stroke="#FDFDFD" stroke-width="0.37" transform="matrix(1.00, 0.00, 0.00, 1.00, 193.5, 599.1)"></path><text xml:space="preserve" font-family="Impact,Impact" font-weight="bold" font-size="18.6" fill="#221F1F" transform="matrix(1.00, 0.00, -0.00, -1.00, 207.3, 401.3)">s</text><text xml:space="preserve" font-family="Impact,Impact" font-weight="bold" font-size="18.6" fill="#221F1F" transform="matrix(1.00, 0.00, -0.00, -1.00, 216.1, 401.3)">t</text><text xml:space="preserve" font-family="Impact,Impact" font-weight="bold" font-size="18.6" fill="#221F1F" transform="matrix(1.00, 0.00, -0.00, -1.00, 221.8, 401.3)">u</text><text xml:space="preserve" font-family="Impact,Impact" font-weight="bold" font-size="18.6" fill="#221F1F" transform="matrix(1.00, 0.00, -0.00, -1.00, 231.5, 401.3)">d</text><text xml:space="preserve" font-family="Impact,Impact" font-weight="bold" font-size="18.6" fill="#221F1F" transform="matrix(1.00, 0.00, -0.00, -1.00, 241.2, 401.3)">y</text><text xml:space="preserve" font-family="Impact,Impact" font-weight="bold" font-size="18.6" fill="#221F1F" transform="matrix(1.00, 0.00, -0.00, -1.00, 213.6, 226.6)">t</text><text xml:space="preserve" font-family="Impact,Impact" font-weight="bold" font-size="18.6" fill="#221F1F" transform="matrix(1.00, 0.00, -0.00, -1.00, 219.3, 226.6)">e</text><text xml:space="preserve" font-family="Impact,Impact" font-weight="bold" font-size="18.6" fill="#221F1F" transform="matrix(1.00, 0.00, -0.00, -1.00, 228.8, 226.6)">s</text><text xml:space="preserve" font-family="Impact,Impact" font-weight="bold" font-size="18.6" fill="#221F1F" transform="matrix(1.00, 0.00, -0.00, -1.00, 237.6, 226.6)">t</text><text xml:space="preserve" font-family="Impact,Impact" font-weight="bold" font-size="18.6" fill="#221F1F" transform="matrix(1.00, 0.00, -0.00, -1.00, 318.6, 402.8)">p</text><text xml:space="preserve" font-family="Impact,Impact" font-weight="bold" font-size="18.6" fill="#221F1F" transform="matrix(1.00, 0.00, -0.00, -1.00, 328.3, 402.8)">r</text><text xml:space="preserve" font-family="Impact,Impact" font-weight="bold" font-size="18.6" fill="#221F1F" transform="matrix(1.00, 0.00, -0.00, -1.00, 334.9, 402.8)">a</text><text xml:space="preserve" font-family="Impact,Impact" font-weight="bold" font-size="18.6" fill="#221F1F" transform="matrix(1.00, 0.00, -0.00, -1.00, 344.3, 402.8)">c</text><text xml:space="preserve" font-family="Impact,Impact" font-weight="bold" font-size="18.6" fill="#221F1F" transform="matrix(1.00, 0.00, -0.00, -1.00, 353.5, 402.8)">t</text><text xml:space="preserve" font-family="Impact,Impact" font-weight="bold" font-size="18.6" fill="#221F1F" transform="matrix(1.00, 0.00, -0.00, -1.00, 359.2, 402.8)">i</text><text xml:space="preserve" font-family="Impact,Impact" font-weight="bold" font-size="18.6" fill="#221F1F" transform="matrix(1.00, 0.00, -0.00, -1.00, 364.3, 402.8)">c</text><text xml:space="preserve" font-family="Impact,Impact" font-weight="bold" font-size="18.6" fill="#221F1F" transform="matrix(1.00, 0.00, -0.00, -1.00, 373.5, 402.8)">e</text><text xml:space="preserve" font-family="Impact,Impact" font-weight="bold" font-size="18.6" fill="#221F1F" transform="matrix(1.00, 0.00, -0.00, -1.00, 318.6, 228.0)">p</text><text xml:space="preserve" font-family="Impact,Impact" font-weight="bold" font-size="18.6" fill="#221F1F" transform="matrix(1.00, 0.00, -0.00, -1.00, 328.3, 228.0)">r</text><text xml:space="preserve" font-family="Impact,Impact" font-weight="bold" font-size="18.6" fill="#221F1F" transform="matrix(1.00, 0.00, -0.00, -1.00, 334.9, 228.0)">o</text><text xml:space="preserve" font-family="Impact,Impact" font-weight="bold" font-size="18.6" fill="#221F1F" transform="matrix(1.00, 0.00, -0.00, -1.00, 344.4, 228.0)">g</text><text xml:space="preserve" font-family="Impact,Impact" font-weight="bold" font-size="18.6" fill="#221F1F" transform="matrix(1.00, 0.00, -0.00, -1.00, 354.1, 228.0)">r</text><text xml:space="preserve" font-family="Impact,Impact" font-weight="bold" font-size="18.6" fill="#221F1F" transform="matrix(1.00, 0.00, -0.00, -1.00, 360.7, 228.0)">e</text><text xml:space="preserve" font-family="Impact,Impact" font-weight="bold" font-size="18.6" fill="#221F1F" transform="matrix(1.00, 0.00, -0.00, -1.00, 370.3, 228.0)">s</text><text xml:space="preserve" font-family="Impact,Impact" font-weight="bold" font-size="18.6" fill="#221F1F" transform="matrix(1.00, 0.00, -0.00, -1.00, 379.0, 228.0)">s</text><path d="M 586.9 681.4 C 586.9 681.4 566.5 681.4 566.5 661.0 L 566.5 107.0 C 566.5 107.0 566.5 86.6 586.9 86.6 L 871.0 86.6 C 871.0 86.6 891.4 86.6 891.4 107.0 L 891.4 661.0 C 891.4 661.0 891.4 681.4 871.0 681.4 Z M 586.9 681.4 " fill="#221F1F"></path><path d="M 0.0 0.0 C 0.0 0.0 -20.4 0.0 -20.4 -20.4 L -20.4 -574.5 C -20.4 -574.5 -20.4 -594.9 0.0 -594.9 L 284.0 -594.9 C 284.0 -594.9 304.4 -594.9 304.4 -574.5 L 304.4 -20.4 C 304.4 -20.4 304.4 0.0 284.0 0.0 L 0.0 0.0 Z M 0.0 0.0 " fill="none" stroke="#221F1F" stroke-width="1.20" transform="matrix(1.00, 0.00, 0.00, 1.00, 586.9, 681.4)"></path><path d="M 601.1 624.6 C 601.1 624.6 584.1 624.6 584.1 607.6 L 584.1 166.5 C 584.1 166.5 584.1 149.5 601.1 149.5 L 856.8 149.5 C 856.8 149.5 873.8 149.5 873.8 166.5 L 873.8 607.6 C 873.8 607.6 873.8 624.6 856.8 624.6 Z M 601.1 624.6 " fill="#FDFDFD"></path></g></g><g><clipPath id="clip0x6000012a46e0"><path d="M 601.1 624.6 C 601.1 624.6 584.1 624.6 584.1 607.6 L 584.1 607.6 L 584.1 166.5 C 584.1 166.5 584.1 149.5 601.1 149.5 L 601.1 149.5 L 856.8 149.5 C 856.8 149.5 873.8 149.5 873.8 166.5 L 873.8 166.5 L 873.8 607.6 C 873.8 607.6 873.8 624.6 856.8 624.6 L 856.8 624.6 Z M 601.1 624.6 "></path></clipPath><g clip-path="url(#clip0x6000012a46e0)"><g><clipPath id="clip0x6000010be300"><path d="M 132.0 86.0 L 892.0 86.0 L 892.0 682.0 L 132.0 682.0 Z M 132.0 86.0 "></path></clipPath><g clip-path="url(#clip0x6000010be300)"><g><g><clipPath id="clip0x6000012a23a0"><path d="M 584.0 565.4 L 874.0 565.4 L 874.0 625.0 L 584.0 625.0 Z M 584.0 565.4 "></path></clipPath><g clip-path="url(#clip0x6000012a23a0)"><path d="M 572.0 635.9 L 886.1 635.9 L 886.1 565.4 L 572.0 565.4 Z M 572.0 635.9 " fill="#221F1F" fill-opacity="0.50"></path></g></g></g><path d="M 574.0 571.3 L 880.2 571.3 L 880.2 634.0 L 574.0 634.0 Z M 574.0 571.3 " fill="#FDFDFD"></path><path d="M 441.8 485.4 L 747.8 485.4 L 747.8 548.1 L 441.8 548.1 Z M 441.8 485.4 " fill="none" stroke="#221F1F" stroke-width="2.00" transform="matrix(1.00, 0.00, 0.00, 1.00, 132.0, 86.0)"></path></g></g></g></g><g><clipPath id="clip0x6080012a9f00"><path d="M 132.0 86.0 L 892.0 86.0 L 892.0 682.0 L 132.0 682.0 Z M 132.0 86.0 "></path></clipPath><g clip-path="url(#clip0x6080012a9f00)"><path d="M 0.0 0.0 C 0.0 0.0 -17.0 0.0 -17.0 -17.0 L -17.0 -458.2 C -17.0 -458.2 -17.0 -475.2 0.0 -475.2 L 255.5 -475.2 C 255.5 -475.2 272.5 -475.2 272.5 -458.2 L 272.5 -17.0 C 272.5 -17.0 272.5 0.0 255.5 0.0 L 0.0 0.0 Z M 0.0 0.0 " fill="none" stroke="#221F1F" stroke-width="1.00" transform="matrix(1.00, 0.00, 0.00, 1.00, 601.1, 624.6)"></path><path d="M 693.8 133.1 C 693.8 133.1 679.8 133.1 679.8 119.1 L 679.8 116.4 C 679.8 116.4 679.8 102.4 693.8 102.4 L 764.1 102.4 C 764.1 102.4 778.1 102.4 778.1 116.4 L 778.1 119.1 C 778.1 119.1 778.1 133.1 764.1 133.1 Z M 693.8 133.1 " fill="#FDFDFD"></path><path d="M 0.0 0.0 C 0.0 0.0 -14.0 0.0 -14.0 -14.0 L -14.0 -16.7 C -14.0 -16.7 -14.0 -30.7 0.0 -30.7 L 70.2 -30.7 C 70.2 -30.7 84.2 -30.7 84.2 -16.7 L 84.2 -14.0 C 84.2 -14.0 84.2 0.0 70.2 0.0 L 0.0 0.0 Z M 0.0 0.0 " fill="none" stroke="#221F1F" stroke-width="1.00" transform="matrix(1.00, 0.00, 0.00, 1.00, 693.8, 133.1)"></path><path d="M 681.9 642.8 L 775.9 642.8 L 775.9 658.0 L 681.9 658.0 Z M 681.9 642.8 " fill="#FDFDFD"></path><path d="M 549.7 556.9 L 643.7 556.9 L 643.7 572.1 L 549.7 572.1 Z M 549.7 556.9 " fill="none" stroke="#221F1F" stroke-width="1.00" transform="matrix(1.00, 0.00, 0.00, 1.00, 132.0, 86.0)"></path><path d="M 623.6 600.6 C 623.6 600.6 631.3 594.4 635.6 597.4 L 634.3 592.2 L 631.4 588.5 C 630.9 593.7 621.2 595.6 621.2 595.6 Z M 623.6 600.6 " fill="#221F1F"></path><path d="M 616.4 602.4 C 616.4 602.4 618.7 612.0 614.1 614.6 L 619.4 615.7 L 624.0 614.7 C 619.5 611.9 622.1 602.4 622.1 602.4 L 619.0 602.7 Z M 616.4 602.4 " fill="#221F1F"></path><path d="M 616.4 595.3 C 616.4 595.3 606.7 593.8 605.9 588.6 L 602.9 593.1 L 602.2 597.7 C 606.4 594.6 614.4 600.5 614.4 600.5 Z M 616.4 595.3 " fill="#221F1F"></path><path d="M 638.5 599.1 C 638.5 609.9 629.8 618.6 619.0 618.6 C 608.3 618.6 599.6 609.9 599.6 599.1 C 599.6 588.4 608.3 579.7 619.0 579.7 C 629.8 579.7 638.5 588.4 638.5 599.1 M 634.6 599.1 C 634.6 590.5 627.6 583.6 619.0 583.6 C 610.4 583.6 603.5 590.5 603.5 599.1 C 603.5 607.7 610.4 614.7 619.0 614.7 C 627.6 614.7 634.6 607.7 634.6 599.1 " fill="#221F1F"></path><path d="M 624.5 599.1 C 624.5 602.1 622.1 604.6 619.0 604.6 C 616.0 604.6 613.6 602.1 613.6 599.1 C 613.6 596.1 616.0 593.7 619.0 593.7 C 622.1 593.7 624.5 596.1 624.5 599.1 M 622.6 599.1 C 622.6 597.2 621.0 595.6 619.0 595.6 C 617.1 595.6 615.5 597.2 615.5 599.1 C 615.5 601.1 617.1 602.7 619.0 602.7 C 621.0 602.7 622.6 601.1 622.6 599.1 " fill="#221F1F"></path><path d="M 0.0 0.0 C 0.0 3.0 -2.4 5.5 -5.5 5.5 C -8.5 5.5 -10.9 3.0 -10.9 0.0 C -10.9 -3.0 -8.5 -5.5 -5.5 -5.5 C -2.4 -5.5 0.0 -3.0 0.0 0.0 Z M -1.9 0.0 C -1.9 -2.0 -3.5 -3.5 -5.5 -3.5 C -7.4 -3.5 -9.0 -2.0 -9.0 0.0 C -9.0 2.0 -7.4 3.5 -5.5 3.5 C -3.5 3.5 -1.9 2.0 -1.9 0.0 Z M -1.9 0.0 " fill="none" stroke="#FDFDFD" stroke-width="0.37" transform="matrix(1.00, 0.00, 0.00, 1.00, 624.5, 599.1)"></path><text xml:space="preserve" font-family="Impact,Impact" font-weight="bold" font-size="24.0" fill="#221F1F" transform="matrix(1.00, 0.00, -0.00, -1.00, 625.2, 496.8)">W</text><text xml:space="preserve" font-family="Impact,Impact" font-weight="bold" font-size="24.0" fill="#221F1F" transform="matrix(1.00, 0.00, -0.00, -1.00, 645.4, 496.8)">h</text><text xml:space="preserve" font-family="Impact,Impact" font-weight="bold" font-size="24.0" fill="#221F1F" transform="matrix(1.00, 0.00, -0.00, -1.00, 658.5, 496.8)">a</text><text xml:space="preserve" font-family="Impact,Impact" font-weight="bold" font-size="24.0" fill="#221F1F" transform="matrix(1.00, 0.00, -0.00, -1.00, 671.2, 496.8)">t</text><text xml:space="preserve" font-family="Impact,Impact" font-weight="bold" font-size="24.0" fill="#221F1F" transform="matrix(1.00, 0.00, -0.00, -1.00, 679.2, 496.8)"> </text><text xml:space="preserve" font-family="Impact,Impact" font-weight="bold" font-size="24.0" fill="#221F1F" transform="matrix(1.00, 0.00, -0.00, -1.00, 684.0, 496.8)">w</text><text xml:space="preserve" font-family="Impact,Impact" font-weight="bold" font-size="24.0" fill="#221F1F" transform="matrix(1.00, 0.00, -0.00, -1.00, 700.7, 496.8)">o</text><text xml:space="preserve" font-family="Impact,Impact" font-weight="bold" font-size="24.0" fill="#221F1F" transform="matrix(1.00, 0.00, -0.00, -1.00, 713.5, 496.8)">u</text><text xml:space="preserve" font-family="Impact,Impact" font-weight="bold" font-size="24.0" fill="#221F1F" transform="matrix(1.00, 0.00, -0.00, -1.00, 726.7, 496.8)">l</text><text xml:space="preserve" font-family="Impact,Impact" font-weight="bold" font-size="24.0" fill="#221F1F" transform="matrix(1.00, 0.00, -0.00, -1.00, 733.9, 496.8)">d</text><text xml:space="preserve" font-family="Impact,Impact" font-weight="bold" font-size="24.0" fill="#221F1F" transform="matrix(1.00, 0.00, -0.00, -1.00, 746.9, 496.8)"> </text><text xml:space="preserve" font-family="Impact,Impact" font-weight="bold" font-size="24.0" fill="#221F1F" transform="matrix(1.00, 0.00, -0.00, -1.00, 751.8, 496.8)">y</text><text xml:space="preserve" font-family="Impact,Impact" font-weight="bold" font-size="24.0" fill="#221F1F" transform="matrix(1.00, 0.00, -0.00, -1.00, 763.1, 496.8)">o</text><text xml:space="preserve" font-family="Impact,Impact" font-weight="bold" font-size="24.0" fill="#221F1F" transform="matrix(1.00, 0.00, -0.00, -1.00, 776.0, 496.8)">u</text><text xml:space="preserve" font-family="Impact,Impact" font-weight="bold" font-size="24.0" fill="#221F1F" transform="matrix(1.00, 0.00, -0.00, -1.00, 789.1, 496.8)"> </text><text xml:space="preserve" font-family="Impact,Impact" font-weight="bold" font-size="24.0" fill="#221F1F" transform="matrix(1.00, 0.00, -0.00, -1.00, 794.0, 496.8)">l</text><text xml:space="preserve" font-family="Impact,Impact" font-weight="bold" font-size="24.0" fill="#221F1F" transform="matrix(1.00, 0.00, -0.00, -1.00, 801.2, 496.8)">i</text><text xml:space="preserve" font-family="Impact,Impact" font-weight="bold" font-size="24.0" fill="#221F1F" transform="matrix(1.00, 0.00, -0.00, -1.00, 808.3, 496.8)">k</text><text xml:space="preserve" font-family="Impact,Impact" font-weight="bold" font-size="24.0" fill="#221F1F" transform="matrix(1.00, 0.00, -0.00, -1.00, 820.4, 496.8)">e</text><text xml:space="preserve" font-family="Impact,Impact" font-weight="bold" font-size="24.0" fill="#221F1F" transform="matrix(1.00, 0.00, -0.00, -1.00, 832.7, 496.8)"> </text><text xml:space="preserve" font-family="Impact,Impact" font-weight="bold" font-size="24.0" fill="#221F1F" transform="matrix(1.00, 0.00, -0.00, -1.00, 634.5, 468.0)">t</text><text xml:space="preserve" font-family="Impact,Impact" font-weight="bold" font-size="24.0" fill="#221F1F" transform="matrix(1.00, 0.00, -0.00, -1.00, 642.4, 468.0)">o</text><text xml:space="preserve" font-family="Impact,Impact" font-weight="bold" font-size="24.0" fill="#221F1F" transform="matrix(1.00, 0.00, -0.00, -1.00, 655.3, 468.0)"> </text><text xml:space="preserve" font-family="Impact,Impact" font-weight="bold" font-size="24.0" fill="#221F1F" transform="matrix(1.00, 0.00, -0.00, -1.00, 660.1, 468.0)">p</text><text xml:space="preserve" font-family="Impact,Impact" font-weight="bold" font-size="24.0" fill="#221F1F" transform="matrix(1.00, 0.00, -0.00, -1.00, 673.2, 468.0)">r</text><text xml:space="preserve" font-family="Impact,Impact" font-weight="bold" font-size="24.0" fill="#221F1F" transform="matrix(1.00, 0.00, -0.00, -1.00, 682.4, 468.0)">a</text><text xml:space="preserve" font-family="Impact,Impact" font-weight="bold" font-size="24.0" fill="#221F1F" transform="matrix(1.00, 0.00, -0.00, -1.00, 695.1, 468.0)">c</text><text xml:space="preserve" font-family="Impact,Impact" font-weight="bold" font-size="24.0" fill="#221F1F" transform="matrix(1.00, 0.00, -0.00, -1.00, 707.6, 468.0)">t</text><text xml:space="preserve" font-family="Impact,Impact" font-weight="bold" font-size="24.0" fill="#221F1F" transform="matrix(1.00, 0.00, -0.00, -1.00, 715.5, 468.0)">i</text><text xml:space="preserve" font-family="Impact,Impact" font-weight="bold" font-size="24.0" fill="#221F1F" transform="matrix(1.00, 0.00, -0.00, -1.00, 722.7, 468.0)">c</text><text xml:space="preserve" font-family="Impact,Impact" font-weight="bold" font-size="24.0" fill="#221F1F" transform="matrix(1.00, 0.00, -0.00, -1.00, 735.1, 468.0)">e</text><text xml:space="preserve" font-family="Impact,Impact" font-weight="bold" font-size="24.0" fill="#221F1F" transform="matrix(1.00, 0.00, -0.00, -1.00, 748.0, 468.0)"> </text><text xml:space="preserve" font-family="Impact,Impact" font-weight="bold" font-size="24.0" fill="#221F1F" transform="matrix(1.00, 0.00, -0.00, -1.00, 752.8, 468.0)">t</text><text xml:space="preserve" font-family="Impact,Impact" font-weight="bold" font-size="24.0" fill="#221F1F" transform="matrix(1.00, 0.00, -0.00, -1.00, 760.8, 468.0)">o</text><text xml:space="preserve" font-family="Impact,Impact" font-weight="bold" font-size="24.0" fill="#221F1F" transform="matrix(1.00, 0.00, -0.00, -1.00, 773.6, 468.0)">d</text><text xml:space="preserve" font-family="Impact,Impact" font-weight="bold" font-size="24.0" fill="#221F1F" transform="matrix(1.00, 0.00, -0.00, -1.00, 786.7, 468.0)">a</text><text xml:space="preserve" font-family="Impact,Impact" font-weight="bold" font-size="24.0" fill="#221F1F" transform="matrix(1.00, 0.00, -0.00, -1.00, 799.4, 468.0)">y</text><text xml:space="preserve" font-family="Impact,Impact" font-weight="bold" font-size="24.0" fill="#221F1F" transform="matrix(1.00, 0.00, -0.00, -1.00, 810.8, 468.0)">?</text><path d="M 629.9 415.5 C 629.9 415.5 617.9 415.5 617.9 403.5 L 617.9 377.0 C 617.9 377.0 617.9 365.0 629.9 365.0 L 828.0 365.0 C 828.0 365.0 840.0 365.0 840.0 377.0 L 840.0 403.5 C 840.0 403.5 840.0 415.5 828.0 415.5 Z M 629.9 415.5 " fill="#F37F1F"></path><path d="M 629.9 343.9 C 629.9 343.9 617.9 343.9 617.9 331.9 L 617.9 305.4 C 617.9 305.4 617.9 293.4 629.9 293.4 L 828.0 293.4 C 828.0 293.4 840.0 293.4 840.0 305.4 L 840.0 331.9 C 840.0 331.9 840.0 343.9 828.0 343.9 Z M 629.9 343.9 " fill="#F37F1F"></path><text xml:space="preserve" font-family="Impact,Impact" font-weight="bold" font-size="24.0" fill="#FDFDFD" transform="matrix(1.00, 0.00, -0.00, -1.00, 679.8, 381.9)">d</text><text xml:space="preserve" font-family="Impact,Impact" font-weight="bold" font-size="24.0" fill="#FDFDFD" transform="matrix(1.00, 0.00, -0.00, -1.00, 692.8, 381.9)">i</text><text xml:space="preserve" font-family="Impact,Impact" font-weight="bold" font-size="24.0" fill="#FDFDFD" transform="matrix(1.00, 0.00, -0.00, -1.00, 700.0, 381.9)">a</text><text xml:space="preserve" font-family="Impact,Impact" font-weight="bold" font-size="24.0" fill="#FDFDFD" transform="matrix(1.00, 0.00, -0.00, -1.00, 712.7, 381.9)">g</text><text xml:space="preserve" font-family="Impact,Impact" font-weight="bold" font-size="24.0" fill="#FDFDFD" transform="matrix(1.00, 0.00, -0.00, -1.00, 725.8, 381.9)">r</text><text xml:space="preserve" font-family="Impact,Impact" font-weight="bold" font-size="24.0" fill="#FDFDFD" transform="matrix(1.00, 0.00, -0.00, -1.00, 735.0, 381.9)">a</text><text xml:space="preserve" font-family="Impact,Impact" font-weight="bold" font-size="24.0" fill="#FDFDFD" transform="matrix(1.00, 0.00, -0.00, -1.00, 747.7, 381.9)">m</text><text xml:space="preserve" font-family="Impact,Impact" font-weight="bold" font-size="24.0" fill="#FDFDFD" transform="matrix(1.00, 0.00, -0.00, -1.00, 766.8, 381.9)">s</text><text xml:space="preserve" font-family="Impact,Impact" font-weight="bold" font-size="24.0" fill="#FDFDFD" transform="matrix(1.00, 0.00, -0.00, -1.00, 708.9, 309.1)">t</text><text xml:space="preserve" font-family="Impact,Impact" font-weight="bold" font-size="24.0" fill="#FDFDFD" transform="matrix(1.00, 0.00, -0.00, -1.00, 716.9, 309.1)">e</text><text xml:space="preserve" font-family="Impact,Impact" font-weight="bold" font-size="24.0" fill="#FDFDFD" transform="matrix(1.00, 0.00, -0.00, -1.00, 729.7, 309.1)">s</text><text xml:space="preserve" font-family="Impact,Impact" font-weight="bold" font-size="24.0" fill="#FDFDFD" transform="matrix(1.00, 0.00, -0.00, -1.00, 741.6, 309.1)">t</text><path d="M 384.4 613.0 C 384.4 613.0 382.4 613.0 382.4 611.0 L 382.4 608.2 C 382.4 608.2 382.4 606.2 384.4 606.2 L 420.1 606.2 C 420.1 606.2 422.1 606.2 422.1 608.2 L 422.1 611.0 C 422.1 611.0 422.1 613.0 420.1 613.0 Z M 384.4 613.0 " fill="#221F1F"></path><path d="M 384.4 601.9 C 384.4 601.9 382.4 601.9 382.4 599.9 L 382.4 597.1 C 382.4 597.1 382.4 595.1 384.4 595.1 L 420.1 595.1 C 420.1 595.1 422.1 595.1 422.1 597.1 L 422.1 599.9 C 422.1 599.9 422.1 601.9 420.1 601.9 Z M 384.4 601.9 " fill="#221F1F"></path><path d="M 384.4 590.6 C 384.4 590.6 382.4 590.6 382.4 588.6 L 382.4 585.8 C 382.4 585.8 382.4 583.8 384.4 583.8 L 420.1 583.8 C 420.1 583.8 422.1 583.8 422.1 585.8 L 422.1 588.6 C 422.1 588.6 422.1 590.6 420.1 590.6 Z M 384.4 590.6 " fill="#221F1F"></path><path d="M 819.8 613.0 C 819.8 613.0 817.8 613.0 817.8 611.0 L 817.8 608.2 C 817.8 608.2 817.8 606.2 819.8 606.2 L 855.5 606.2 C 855.5 606.2 857.5 606.2 857.5 608.2 L 857.5 611.0 C 857.5 611.0 857.5 613.0 855.5 613.0 Z M 819.8 613.0 " fill="#221F1F"></path><path d="M 819.8 601.9 C 819.8 601.9 817.8 601.9 817.8 599.9 L 817.8 597.1 C 817.8 597.1 817.8 595.1 819.8 595.1 L 855.5 595.1 C 855.5 595.1 857.5 595.1 857.5 597.1 L 857.5 599.9 C 857.5 599.9 857.5 601.9 855.5 601.9 Z M 819.8 601.9 " fill="#221F1F"></path><path d="M 819.8 590.6 C 819.8 590.6 817.8 590.6 817.8 588.6 L 817.8 585.8 C 817.8 585.8 817.8 583.8 819.8 583.8 L 855.5 583.8 C 855.5 583.8 857.5 583.8 857.5 585.8 L 857.5 588.6 C 857.5 588.6 857.5 590.6 855.5 590.6 Z M 819.8 590.6 " fill="#221F1F"></path><text xml:space="preserve" font-family="Impact,Impact" font-weight="bold" font-size="20.5" fill="#221F1F" transform="matrix(1.00, 0.00, -0.00, -1.00, 651.9, 591.0)">p</text><text xml:space="preserve" font-family="Impact,Impact" font-weight="bold" font-size="20.5" fill="#221F1F" transform="matrix(1.00, 0.00, -0.00, -1.00, 662.5, 591.0)">r</text><text xml:space="preserve" font-family="Impact,Impact" font-weight="bold" font-size="20.5" fill="#221F1F" transform="matrix(1.00, 0.00, -0.00, -1.00, 669.9, 591.0)">a</text><text xml:space="preserve" font-family="Impact,Impact" font-weight="bold" font-size="20.5" fill="#221F1F" transform="matrix(1.00, 0.00, -0.00, -1.00, 680.2, 591.0)">c</text><text xml:space="preserve" font-family="Impact,Impact" font-weight="bold" font-size="20.5" fill="#221F1F" transform="matrix(1.00, 0.00, -0.00, -1.00, 690.3, 591.0)">t</text><text xml:space="preserve" font-family="Impact,Impact" font-weight="bold" font-size="20.5" fill="#221F1F" transform="matrix(1.00, 0.00, -0.00, -1.00, 696.5, 591.0)">i</text><text xml:space="preserve" font-family="Impact,Impact" font-weight="bold" font-size="20.5" fill="#221F1F" transform="matrix(1.00, 0.00, -0.00, -1.00, 702.1, 591.0)">c</text><text xml:space="preserve" font-family="Impact,Impact" font-weight="bold" font-size="20.5" fill="#221F1F" transform="matrix(1.00, 0.00, -0.00, -1.00, 712.3, 591.0)">e</text><path d="M 196.0 500.1 L 196.0 457.5 C 196.0 457.5 201.7 459.1 212.6 459.1 C 223.5 459.1 228.2 457.5 228.2 457.5 L 228.2 500.1 C 228.2 500.1 223.9 502.3 212.4 502.3 C 199.7 502.3 196.0 500.1 196.0 500.1 " fill="#FDFDFD"></path><path d="M 0.0 0.0 L 0.0 -42.6 C 0.0 -42.6 5.7 -41.0 16.6 -41.0 C 27.4 -41.0 32.1 -42.6 32.1 -42.6 L 32.1 0.0 C 32.1 0.0 27.8 2.2 16.4 2.2 C 3.6 2.2 0.0 0.0 0.0 0.0 Z M 0.0 0.0 " fill="none" stroke="#221F1F" stroke-width="0.79" transform="matrix(1.00, 0.00, 0.00, 1.00, 196.0, 500.1)"></path><path d="M 196.0 501.8 L 196.0 459.1 C 196.0 459.1 201.7 460.8 212.6 460.8 C 223.5 460.8 228.2 459.1 228.2 459.1 L 228.2 501.8 C 228.2 501.8 223.9 504.0 212.4 504.0 C 199.7 504.0 196.0 501.8 196.0 501.8 " fill="#FDFDFD"></path><path d="M 0.0 0.0 L 0.0 -42.6 C 0.0 -42.6 5.7 -41.0 16.6 -41.0 C 27.4 -41.0 32.1 -42.6 32.1 -42.6 L 32.1 0.0 C 32.1 0.0 27.8 2.2 16.4 2.2 C 3.6 2.2 0.0 0.0 0.0 0.0 Z M 0.0 0.0 " fill="none" stroke="#221F1F" stroke-width="0.79" transform="matrix(1.00, 0.00, 0.00, 1.00, 196.0, 501.8)"></path><path d="M 228.7 500.1 L 228.7 457.5 C 228.7 457.5 234.4 459.1 245.2 459.1 C 256.1 459.1 260.8 457.5 260.8 457.5 L 260.8 500.1 C 260.8 500.1 256.5 502.3 245.0 502.3 C 232.3 502.3 228.7 500.1 228.7 500.1 " fill="#FDFDFD"></path><path d="M 0.0 0.0 L 0.0 -42.6 C 0.0 -42.6 5.7 -41.0 16.6 -41.0 C 27.4 -41.0 32.1 -42.6 32.1 -42.6 L 32.1 0.0 C 32.1 0.0 27.8 2.2 16.4 2.2 C 3.6 2.2 0.0 0.0 0.0 0.0 Z M 0.0 0.0 " fill="none" stroke="#221F1F" stroke-width="0.79" transform="matrix(1.00, 0.00, 0.00, 1.00, 228.7, 500.1)"></path><path d="M 228.7 501.8 L 228.7 459.1 C 228.7 459.1 234.4 460.8 245.2 460.8 C 256.1 460.8 260.8 459.1 260.8 459.1 L 260.8 501.8 C 260.8 501.8 256.5 504.0 245.0 504.0 C 232.3 504.0 228.7 501.8 228.7 501.8 " fill="#FDFDFD"></path><path d="M 0.0 0.0 L 0.0 -42.6 C 0.0 -42.6 5.7 -41.0 16.6 -41.0 C 27.4 -41.0 32.1 -42.6 32.1 -42.6 L 32.1 0.0 C 32.1 0.0 27.8 2.2 16.4 2.2 C 3.6 2.2 0.0 0.0 0.0 0.0 Z M 0.0 0.0 " fill="none" stroke="#221F1F" stroke-width="0.79" transform="matrix(1.00, 0.00, 0.00, 1.00, 228.7, 501.8)"></path><path d="M 196.0 503.5 L 196.0 460.8 C 196.0 460.8 201.7 462.5 212.6 462.5 C 223.5 462.5 228.2 460.8 228.2 460.8 L 228.2 503.5 C 228.2 503.5 223.9 505.7 212.4 505.7 C 199.7 505.7 196.0 503.5 196.0 503.5 " fill="#FDFDFD"></path><path d="M 0.0 0.0 L 0.0 -42.6 C 0.0 -42.6 5.7 -41.0 16.6 -41.0 C 27.4 -41.0 32.1 -42.6 32.1 -42.6 L 32.1 0.0 C 32.1 0.0 27.8 2.2 16.4 2.2 C 3.6 2.2 0.0 0.0 0.0 0.0 Z M 0.0 0.0 " fill="none" stroke="#221F1F" stroke-width="0.79" transform="matrix(1.00, 0.00, 0.00, 1.00, 196.0, 503.5)"></path><path d="M 228.7 503.5 L 228.7 460.8 C 228.7 460.8 234.4 462.5 245.2 462.5 C 256.1 462.5 260.8 460.8 260.8 460.8 L 260.8 503.5 C 260.8 503.5 256.5 505.7 245.0 505.7 C 232.3 505.7 228.7 503.5 228.7 503.5 " fill="#FDFDFD"></path><path d="M 0.0 0.0 L 0.0 -42.6 C 0.0 -42.6 5.7 -41.0 16.6 -41.0 C 27.4 -41.0 32.1 -42.6 32.1 -42.6 L 32.1 0.0 C 32.1 0.0 27.8 2.2 16.4 2.2 C 3.6 2.2 0.0 0.0 0.0 0.0 Z M 0.0 0.0 " fill="none" stroke="#221F1F" stroke-width="0.79" transform="matrix(1.00, 0.00, 0.00, 1.00, 228.7, 503.5)"></path><path d="M 0.0 0.0 L 22.6 0.0 " fill="none" stroke="#221F1F" stroke-width="0.79" transform="matrix(1.00, 0.00, 0.00, 1.00, 200.2, 497.5)"></path><path d="M 0.0 0.0 L 22.6 0.0 " fill="none" stroke="#221F1F" stroke-width="0.79" transform="matrix(1.00, 0.00, 0.00, 1.00, 233.9, 497.5)"></path><path d="M 0.0 0.0 L 22.6 0.0 " fill="none" stroke="#221F1F" stroke-width="0.79" transform="matrix(1.00, 0.00, 0.00, 1.00, 200.2, 491.9)"></path><path d="M 0.0 0.0 L 22.6 0.0 " fill="none" stroke="#221F1F" stroke-width="0.79" transform="matrix(1.00, 0.00, 0.00, 1.00, 233.9, 491.9)"></path><path d="M 0.0 0.0 L 22.6 0.0 " fill="none" stroke="#221F1F" stroke-width="0.79" transform="matrix(1.00, 0.00, 0.00, 1.00, 200.2, 486.3)"></path><path d="M 0.0 0.0 L 22.6 0.0 " fill="none" stroke="#221F1F" stroke-width="0.79" transform="matrix(1.00, 0.00, 0.00, 1.00, 233.9, 486.3)"></path><path d="M 0.0 0.0 L 22.6 0.0 " fill="none" stroke="#221F1F" stroke-width="0.79" transform="matrix(1.00, 0.00, 0.00, 1.00, 200.2, 480.7)"></path><path d="M 0.0 0.0 L 22.6 0.0 " fill="none" stroke="#221F1F" stroke-width="0.79" transform="matrix(1.00, 0.00, 0.00, 1.00, 233.9, 480.7)"></path><path d="M 0.0 0.0 L 22.6 0.0 " fill="none" stroke="#221F1F" stroke-width="0.79" transform="matrix(1.00, 0.00, 0.00, 1.00, 200.2, 475.1)"></path><path d="M 0.0 0.0 L 22.6 0.0 " fill="none" stroke="#221F1F" stroke-width="0.79" transform="matrix(1.00, 0.00, 0.00, 1.00, 233.9, 475.1)"></path><path d="M 0.0 0.0 L 22.6 0.0 " fill="none" stroke="#221F1F" stroke-width="0.79" transform="matrix(1.00, 0.00, 0.00, 1.00, 200.2, 469.5)"></path><path d="M 0.0 0.0 L 22.6 0.0 " fill="none" stroke="#221F1F" stroke-width="0.79" transform="matrix(1.00, 0.00, 0.00, 1.00, 233.9, 469.5)"></path><path d="M 386.3 465.1 L 386.3 497.5 L 368.6 515.4 L 337.7 515.4 L 320.0 497.5 L 320.0 465.1 L 337.7 447.5 L 368.7 447.5 Z M 379.7 468.4 L 365.6 454.3 L 340.8 454.3 L 326.7 468.4 L 326.7 494.3 L 340.8 508.7 L 365.6 508.7 L 379.7 494.3 Z M 379.7 468.4 " fill="#FDFDFD"></path></g></g><g><clipPath id="clip0x6000010b24e0"><path d="M 337.7 515.4 L 320.0 497.5 L 320.0 465.1 L 337.7 447.5 L 368.7 447.5 L 386.3 465.1 L 386.3 497.5 L 368.6 515.4 Z M 326.7 468.4 L 326.7 494.3 L 340.8 508.7 L 365.6 508.7 L 379.7 494.3 L 379.7 468.4 L 365.6 454.3 L 340.8 454.3 Z M 326.7 468.4 "></path></clipPath><g clip-path="url(#clip0x6000010b24e0)"><g><clipPath id="clip0x600000ebcb00"><path d="M 132.0 86.0 L 892.0 86.0 L 892.0 682.0 L 132.0 682.0 Z M 132.0 86.0 "></path></clipPath><g clip-path="url(#clip0x600000ebcb00)"><path d="M 0.0 0.0 L -17.6 17.6 L -17.6 50.0 L 0.1 67.9 L 31.0 67.9 L 48.7 50.0 L 48.7 17.6 L 31.1 0.0 L 0.0 0.0 Z M 0.0 0.0 " fill="none" stroke="#221F1F" stroke-width="0.90" transform="matrix(1.00, 0.00, 0.00, 1.00, 337.7, 447.5)"></path></g></g></g></g><g><clipPath id="clip0x6000010ab4c0"><path d="M 132.0 86.0 L 892.0 86.0 L 892.0 682.0 L 132.0 682.0 Z M 132.0 86.0 "></path></clipPath><g clip-path="url(#clip0x6000010ab4c0)"><text xml:space="preserve" font-family="Impact,Impact" font-weight="bold" font-size="18.6" fill="#FDFDFD" transform="matrix(1.00, 0.00, -0.00, -1.00, 332.3, 474.1)">S</text><text xml:space="preserve" font-family="Impact,Impact" font-weight="bold" font-size="18.6" fill="#FDFDFD" transform="matrix(1.00, 0.00, -0.00, -1.00, 343.0, 474.1)">T</text><text xml:space="preserve" font-family="Impact,Impact" font-weight="bold" font-size="18.6" fill="#FDFDFD" transform="matrix(1.00, 0.00, -0.00, -1.00, 353.1, 474.1)">O</text><text xml:space="preserve" font-family="Impact,Impact" font-weight="bold" font-size="18.6" fill="#FDFDFD" transform="matrix(1.00, 0.00, -0.00, -1.00, 364.8, 474.1)">P</text><path d="M 247.7 328.0 C 247.7 328.0 247.7 346.0 229.7 346.0 L 226.7 346.0 C 226.7 346.0 208.7 346.0 208.7 328.0 L 208.7 283.7 C 208.7 283.7 208.7 265.7 226.7 265.7 L 229.7 265.7 C 229.7 265.7 247.7 265.7 247.7 283.7 Z M 247.7 328.0 " fill="#221F1F"></path><path d="M 0.0 0.0 C 0.0 0.0 0.0 18.0 -18.0 18.0 L -20.9 18.0 C -20.9 18.0 -38.9 18.0 -38.9 0.0 L -38.9 -44.2 C -38.9 -44.2 -38.9 -62.2 -20.9 -62.2 L -18.0 -62.2 C -18.0 -62.2 0.0 -62.2 0.0 -44.2 L 0.0 0.0 Z M 0.0 0.0 " fill="none" stroke="#000000" stroke-width="1.00" transform="matrix(1.00, 0.00, 0.00, 1.00, 247.7, 328.0)"></path><path d="M 247.7 328.0 C 247.7 328.0 247.7 346.0 229.7 346.0 L 226.7 346.0 C 226.7 346.0 208.7 346.0 208.7 328.0 L 208.7 283.7 C 208.7 283.7 208.7 265.7 226.7 265.7 L 229.7 265.7 C 229.7 265.7 247.7 265.7 247.7 283.7 Z M 247.7 328.0 " fill="#FDFDFD"></path><path d="M 0.0 0.0 C 0.0 0.0 0.0 18.0 -18.0 18.0 L -20.9 18.0 C -20.9 18.0 -38.9 18.0 -38.9 0.0 L -38.9 -44.2 C -38.9 -44.2 -38.9 -62.2 -20.9 -62.2 L -18.0 -62.2 C -18.0 -62.2 0.0 -62.2 0.0 -44.2 L 0.0 0.0 Z M 0.0 0.0 " fill="none" stroke="#000000" stroke-width="1.00" transform="matrix(1.00, 0.00, 0.00, 1.00, 247.7, 328.0)"></path><path d="M 244.3 325.5 C 244.3 325.5 244.3 340.5 229.3 340.5 L 227.1 340.5 C 227.1 340.5 212.1 340.5 212.1 325.5 L 212.1 286.2 C 212.1 286.2 212.1 271.2 227.1 271.2 L 229.3 271.2 C 229.3 271.2 244.3 271.2 244.3 286.2 Z M 244.3 325.5 " fill="#221F1F"></path><path d="M 0.0 0.0 C 0.0 0.0 0.0 15.0 -15.0 15.0 L -17.2 15.0 C -17.2 15.0 -32.2 15.0 -32.2 0.0 L -32.2 -39.4 C -32.2 -39.4 -32.2 -54.4 -17.2 -54.4 L -15.0 -54.4 C -15.0 -54.4 0.0 -54.4 0.0 -39.4 L 0.0 0.0 Z M 0.0 0.0 " fill="none" stroke="#000000" stroke-width="1.00" transform="matrix(1.00, 0.00, 0.00, 1.00, 244.3, 325.5)"></path><path d="M 228.2 317.8 C 233.2 317.8 237.3 321.9 237.3 327.0 C 237.3 332.0 233.2 336.1 228.2 336.1 C 223.1 336.1 219.1 332.0 219.1 327.0 C 219.1 321.9 223.1 317.8 228.2 317.8 " fill="#FDFDFD"></path><path d="M 0.0 0.0 C 5.0 0.0 9.1 4.1 9.1 9.1 C 9.1 14.2 5.0 18.3 0.0 18.3 C -5.0 18.3 -9.1 14.2 -9.1 9.1 C -9.1 4.1 -5.0 0.0 0.0 0.0 Z M 0.0 0.0 " fill="none" stroke="#000000" stroke-width="1.00" transform="matrix(1.00, 0.00, 0.00, 1.00, 228.2, 317.8)"></path><path d="M 228.2 296.4 C 233.2 296.4 237.3 300.5 237.3 305.6 C 237.3 310.6 233.2 314.7 228.2 314.7 C 223.1 314.7 219.1 310.6 219.1 305.6 C 219.1 300.5 223.1 296.4 228.2 296.4 " fill="#FDFDFD"></path><path d="M 0.0 0.0 C 5.0 0.0 9.1 4.1 9.1 9.1 C 9.1 14.2 5.0 18.3 0.0 18.3 C -5.0 18.3 -9.1 14.2 -9.1 9.1 C -9.1 4.1 -5.0 0.0 0.0 0.0 Z M 0.0 0.0 " fill="none" stroke="#000000" stroke-width="1.00" transform="matrix(1.00, 0.00, 0.00, 1.00, 228.2, 296.4)"></path><path d="M 228.2 274.7 C 233.2 274.7 237.3 278.8 237.3 283.9 C 237.3 288.9 233.2 293.0 228.2 293.0 C 223.1 293.0 219.1 288.9 219.1 283.9 C 219.1 278.8 223.1 274.7 228.2 274.7 " fill="#FDFDFD"></path><path d="M 0.0 0.0 C 5.0 0.0 9.1 4.1 9.1 9.1 C 9.1 14.2 5.0 18.3 0.0 18.3 C -5.0 18.3 -9.1 14.2 -9.1 9.1 C -9.1 4.1 -5.0 0.0 0.0 0.0 Z M 0.0 0.0 " fill="none" stroke="#000000" stroke-width="1.00" transform="matrix(1.00, 0.00, 0.00, 1.00, 228.2, 274.7)"></path><path d="M 327.3 274.4 L 341.7 274.4 L 341.7 305.4 L 327.3 305.4 Z M 327.3 274.4 " fill="#FDFDFD"></path><path d="M 346.0 274.4 L 360.4 274.4 L 360.4 318.5 L 346.0 318.5 Z M 346.0 274.4 " fill="#FDFDFD"></path><path d="M 364.7 274.4 L 379.1 274.4 L 379.1 337.1 L 364.7 337.1 Z M 364.7 274.4 " fill="#FDFDFD"></path></g></g></g></g></g><g><clipPath id="clip0x6000010bff20"><path d="M 566.0 86.0 L 892.0 86.0 L 892.0 682.0 L 566.0 682.0 Z M 566.0 86.0 "></path></clipPath><g clip-path="url(#clip0x6000010bff20)"><g><g><clipPath id="clip0x6000012ab6a0"><path d="M 566.0 86.0 L 892.0 86.0 L 892.0 682.0 L 566.0 682.0 Z M 566.0 86.0 "></path></clipPath><g clip-path="url(#clip0x6000012ab6a0)"><path d="M 587.0 681.4 C 587.0 681.4 566.6 681.4 566.6 661.0 L 566.6 107.0 C 566.6 107.0 566.6 86.6 587.0 86.6 L 871.0 86.6 C 871.0 86.6 891.4 86.6 891.4 107.0 L 891.4 661.0 C 891.4 661.0 891.4 681.4 871.0 681.4 Z M 587.0 681.4 " fill="#221F1F"></path><path d="M 0.0 0.0 C 0.0 0.0 -18.0 0.0 -18.0 -18.0 L -18.0 -505.4 C -18.0 -505.4 -18.0 -523.3 0.0 -523.3 L 249.8 -523.3 C 249.8 -523.3 267.7 -523.3 267.7 -505.4 L 267.7 -18.0 C 267.7 -18.0 267.7 0.0 249.8 0.0 L 0.0 0.0 Z M 0.0 0.0 " fill="none" stroke="#221F1F" stroke-width="1.06" transform="matrix(1.14, 0.00, 0.00, 1.14, 587.0, 681.4)"></path><path d="M 601.2 624.6 C 601.2 624.6 584.2 624.6 584.2 607.6 L 584.2 166.5 C 584.2 166.5 584.2 149.5 601.2 149.5 L 856.8 149.5 C 856.8 149.5 873.8 149.5 873.8 166.5 L 873.8 607.6 C 873.8 607.6 873.8 624.6 856.8 624.6 Z M 601.2 624.6 " fill="#FDFDFD"></path></g></g><g><clipPath id="clip0x6000010b9080"><path d="M 601.2 624.6 C 601.2 624.6 584.2 624.6 584.2 607.6 L 584.2 607.6 L 584.2 166.5 C 584.2 166.5 584.2 149.5 601.2 149.5 L 601.2 149.5 L 856.8 149.5 C 856.8 149.5 873.8 149.5 873.8 166.5 L 873.8 166.5 L 873.8 607.6 C 873.8 607.6 873.8 624.6 856.8 624.6 L 856.8 624.6 Z M 601.2 624.6 "></path></clipPath><g clip-path="url(#clip0x6000010b9080)"><g><clipPath id="clip0x6000010ab760"><path d="M 566.0 86.0 L 892.0 86.0 L 892.0 682.0 L 566.0 682.0 Z M 566.0 86.0 "></path></clipPath><g clip-path="url(#clip0x6000010ab760)"><path d="M 579.5 387.3 L 883.5 387.3 L 883.5 538.4 L 579.5 538.4 Z M 579.5 387.3 " fill="#F37F1F"></path></g></g></g></g><g><clipPath id="clip0x6080010af8a0"><path d="M 601.2 624.6 C 601.2 624.6 584.2 624.6 584.2 607.6 L 584.2 607.6 L 584.2 166.5 C 584.2 166.5 584.2 149.5 601.2 149.5 L 601.2 149.5 L 856.8 149.5 C 856.8 149.5 873.8 149.5 873.8 166.5 L 873.8 166.5 L 873.8 607.6 C 873.8 607.6 873.8 624.6 856.8 624.6 L 856.8 624.6 Z M 601.2 624.6 "></path></clipPath><g clip-path="url(#clip0x6080010af8a0)"><g><clipPath id="clip0x6080010bf080"><path d="M 566.0 86.0 L 892.0 86.0 L 892.0 682.0 L 566.0 682.0 Z M 566.0 86.0 "></path></clipPath><g clip-path="url(#clip0x6080010bf080)"><g><g><clipPath id="clip0x6080012a4f80"><path d="M 584.0 564.6 L 874.0 564.6 L 874.0 625.0 L 584.0 625.0 Z M 584.0 564.6 "></path></clipPath><g clip-path="url(#clip0x6080012a4f80)"><path d="M 572.0 636.0 L 886.9 636.0 L 886.9 564.6 L 572.0 564.6 Z M 572.0 636.0 " fill="#221F1F" fill-opacity="0.50"></path></g></g></g><path d="M 574.1 571.3 L 880.2 571.3 L 880.2 634.0 L 574.1 634.0 Z M 574.1 571.3 " fill="#FDFDFD"></path><path d="M 7.1 427.0 L 276.3 427.0 L 276.3 482.2 L 7.1 482.2 Z M 7.1 427.0 " fill="none" stroke="#221F1F" stroke-width="1.76" transform="matrix(1.14, 0.00, 0.00, 1.14, 566.0, 86.0)"></path></g></g></g></g><g><clipPath id="clip0x6000010bbc00"><path d="M 566.0 86.0 L 892.0 86.0 L 892.0 682.0 L 566.0 682.0 Z M 566.0 86.0 "></path></clipPath><g clip-path="url(#clip0x6000010bbc00)"><path d="M 0.0 0.0 C 0.0 0.0 -15.0 0.0 -15.0 -15.0 L -15.0 -403.1 C -15.0 -403.1 -15.0 -418.0 0.0 -418.0 L 224.8 -418.0 C 224.8 -418.0 239.7 -418.0 239.7 -403.1 L 239.7 -15.0 C 239.7 -15.0 239.7 0.0 224.8 0.0 L 0.0 0.0 Z M 0.0 0.0 " fill="none" stroke="#221F1F" stroke-width="0.88" transform="matrix(1.14, 0.00, 0.00, 1.14, 601.2, 624.6)"></path><path d="M 693.5 133.1 C 693.5 133.1 679.9 133.1 679.9 119.5 L 679.9 116.0 C 679.9 116.0 679.9 102.4 693.5 102.4 L 764.5 102.4 C 764.5 102.4 778.1 102.4 778.1 116.0 L 778.1 119.5 C 778.1 119.5 778.1 133.1 764.5 133.1 Z M 693.5 133.1 " fill="#FDFDFD"></path><path d="M 0.0 0.0 C 0.0 0.0 -12.0 0.0 -12.0 -12.0 L -12.0 -15.0 C -12.0 -15.0 -12.0 -27.0 0.0 -27.0 L 62.4 -27.0 C 62.4 -27.0 74.4 -27.0 74.4 -15.0 L 74.4 -12.0 C 74.4 -12.0 74.4 0.0 62.4 0.0 L 0.0 0.0 Z M 0.0 0.0 " fill="none" stroke="#221F1F" stroke-width="0.88" transform="matrix(1.14, 0.00, 0.00, 1.14, 693.5, 133.1)"></path></g></g><g><clipPath id="clip0x6080010aea00"><path d="M 566.0 86.0 L 892.0 86.0 L 892.0 682.0 L 566.0 682.0 Z M 566.0 86.0 "></path></clipPath><g clip-path="url(#clip0x6080010aea00)"><path d="M 682.0 642.8 L 776.0 642.8 L 776.0 658.0 L 682.0 658.0 Z M 682.0 642.8 " fill="#FDFDFD"></path><path d="M 102.1 489.9 L 184.7 489.9 L 184.7 503.3 L 102.1 503.3 Z M 102.1 489.9 " fill="none" stroke="#221F1F" stroke-width="0.88" transform="matrix(1.14, 0.00, 0.00, 1.14, 566.0, 86.0)"></path></g></g><g><clipPath id="clip0x6080010b6860"><path d="M 566.0 86.0 L 892.0 86.0 L 892.0 682.0 L 566.0 682.0 Z M 566.0 86.0 "></path></clipPath><g clip-path="url(#clip0x6080010b6860)"><path d="M 623.0 599.6 C 623.0 599.6 630.6 593.4 635.0 596.4 L 633.6 591.1 L 630.7 587.4 C 630.2 592.7 620.5 594.6 620.5 594.6 Z M 623.0 599.6 " fill="#221F1F"></path><path d="M 615.8 601.4 C 615.8 601.4 618.0 610.9 613.4 613.6 L 618.7 614.7 L 623.3 613.7 C 618.8 610.9 621.4 601.4 621.4 601.4 L 618.3 601.7 Z M 615.8 601.4 " fill="#221F1F"></path><path d="M 615.7 594.3 C 615.7 594.3 606.0 592.8 605.2 587.6 L 602.3 592.1 L 601.5 596.7 C 605.8 593.6 613.7 599.5 613.7 599.5 Z M 615.7 594.3 " fill="#221F1F"></path><path d="M 637.8 598.1 C 637.8 608.9 629.1 617.6 618.3 617.6 C 607.6 617.6 598.9 608.9 598.9 598.1 C 598.9 587.4 607.6 578.6 618.3 578.6 C 629.1 578.6 637.8 587.4 637.8 598.1 M 633.9 598.1 C 633.9 589.5 627.0 582.5 618.3 582.5 C 609.7 582.5 602.8 589.5 602.8 598.1 C 602.8 606.7 609.7 613.7 618.3 613.7 C 627.0 613.7 633.9 606.7 633.9 598.1 " fill="#221F1F"></path><path d="M 623.8 598.1 C 623.8 601.1 621.4 603.6 618.4 603.6 C 615.3 603.6 612.9 601.1 612.9 598.1 C 612.9 595.1 615.3 592.6 618.4 592.6 C 621.4 592.6 623.8 595.1 623.8 598.1 M 621.9 598.1 C 621.9 596.2 620.3 594.6 618.4 594.6 C 616.4 594.6 614.8 596.2 614.8 598.1 C 614.8 600.1 616.4 601.7 618.4 601.7 C 620.3 601.7 621.9 600.1 621.9 598.1 " fill="#221F1F"></path><path d="M 0.0 0.0 C 0.0 2.7 -2.2 4.8 -4.8 4.8 C -7.5 4.8 -9.6 2.7 -9.6 0.0 C -9.6 -2.7 -7.5 -4.8 -4.8 -4.8 C -2.2 -4.8 0.0 -2.7 0.0 0.0 Z M -1.7 0.0 C -1.7 -1.7 -3.1 -3.1 -4.8 -3.1 C -6.5 -3.1 -7.9 -1.7 -7.9 0.0 C -7.9 1.7 -6.5 3.1 -4.8 3.1 C -3.1 3.1 -1.7 1.7 -1.7 0.0 Z M -1.7 0.0 " fill="none" stroke="#FDFDFD" stroke-width="0.32" transform="matrix(1.14, 0.00, 0.00, 1.14, 623.8, 598.1)"></path></g></g><g><clipPath id="clip0x6080010abca0"><path d="M 566.0 86.0 L 892.0 86.0 L 892.0 682.0 L 566.0 682.0 Z M 566.0 86.0 "></path></clipPath><g clip-path="url(#clip0x6080010abca0)"><text xml:space="preserve" font-family="Impact,Impact" font-weight="bold" font-size="21.1" fill="#FDFDFD" transform="matrix(1.14, 0.00, -0.00, -1.14, 678.6, 499.7)">H</text><text xml:space="preserve" font-family="Impact,Impact" font-weight="bold" font-size="21.1" fill="#FDFDFD" transform="matrix(1.14, 0.00, -0.00, -1.14, 692.5, 499.7)">i</text><text xml:space="preserve" font-family="Impact,Impact" font-weight="bold" font-size="21.1" fill="#FDFDFD" transform="matrix(1.14, 0.00, -0.00, -1.14, 699.7, 499.7)"> </text><text xml:space="preserve" font-family="Impact,Impact" font-weight="bold" font-size="21.1" fill="#FDFDFD" transform="matrix(1.14, 0.00, -0.00, -1.14, 704.5, 499.7)">T</text><text xml:space="preserve" font-family="Impact,Impact" font-weight="bold" font-size="21.1" fill="#FDFDFD" transform="matrix(1.14, 0.00, -0.00, -1.14, 716.2, 499.7)">s</text><text xml:space="preserve" font-family="Impact,Impact" font-weight="bold" font-size="21.1" fill="#FDFDFD" transform="matrix(1.14, 0.00, -0.00, -1.14, 728.1, 499.7)">h</text><text xml:space="preserve" font-family="Impact,Impact" font-weight="bold" font-size="21.1" fill="#FDFDFD" transform="matrix(1.14, 0.00, -0.00, -1.14, 741.2, 499.7)">e</text><text xml:space="preserve" font-family="Impact,Impact" font-weight="bold" font-size="21.1" fill="#FDFDFD" transform="matrix(1.14, 0.00, -0.00, -1.14, 754.1, 499.7)">p</text><text xml:space="preserve" font-family="Impact,Impact" font-weight="bold" font-size="21.1" fill="#FDFDFD" transform="matrix(1.14, 0.00, -0.00, -1.14, 767.2, 499.7)">o</text></g></g><g><clipPath id="clip0x6000010ba940"><path d="M 566.0 86.0 L 892.0 86.0 L 892.0 682.0 L 566.0 682.0 Z M 566.0 86.0 "></path></clipPath><g clip-path="url(#clip0x6000010ba940)"><path d="M 823.3 613.0 C 823.3 613.0 822.1 613.0 822.1 611.9 L 822.1 607.4 C 822.1 607.4 822.1 606.2 823.3 606.2 L 860.7 606.2 C 860.7 606.2 861.8 606.2 861.8 607.4 L 861.8 611.9 C 861.8 611.9 861.8 613.0 860.7 613.0 Z M 823.3 613.0 " fill="#221F1F"></path><path d="M 823.3 601.9 C 823.3 601.9 822.1 601.9 822.1 600.8 L 822.1 596.3 C 822.1 596.3 822.1 595.1 823.3 595.1 L 860.7 595.1 C 860.7 595.1 861.8 595.1 861.8 596.3 L 861.8 600.8 C 861.8 600.8 861.8 601.9 860.7 601.9 Z M 823.3 601.9 " fill="#221F1F"></path><path d="M 823.3 590.6 C 823.3 590.6 822.1 590.6 822.1 589.5 L 822.1 584.9 C 822.1 584.9 822.1 583.8 823.3 583.8 L 860.7 583.8 C 860.7 583.8 861.8 583.8 861.8 584.9 L 861.8 589.5 C 861.8 589.5 861.8 590.6 860.7 590.6 Z M 823.3 590.6 " fill="#221F1F"></path></g></g><g><clipPath id="clip0x6080012a1920"><path d="M 566.0 86.0 L 892.0 86.0 L 892.0 682.0 L 566.0 682.0 Z M 566.0 86.0 "></path></clipPath><g clip-path="url(#clip0x6080012a1920)"><text xml:space="preserve" font-family="Impact,Impact" font-weight="bold" font-size="18.0" fill="#221F1F" transform="matrix(1.14, 0.00, -0.00, -1.14, 653.6, 590.0)">p</text><text xml:space="preserve" font-family="Impact,Impact" font-weight="bold" font-size="18.0" fill="#221F1F" transform="matrix(1.14, 0.00, -0.00, -1.14, 664.2, 590.0)">r</text><text xml:space="preserve" font-family="Impact,Impact" font-weight="bold" font-size="18.0" fill="#221F1F" transform="matrix(1.14, 0.00, -0.00, -1.14, 671.5, 590.0)">o</text><text xml:space="preserve" font-family="Impact,Impact" font-weight="bold" font-size="18.0" fill="#221F1F" transform="matrix(1.14, 0.00, -0.00, -1.14, 682.0, 590.0)">g</text><text xml:space="preserve" font-family="Impact,Impact" font-weight="bold" font-size="18.0" fill="#221F1F" transform="matrix(1.14, 0.00, -0.00, -1.14, 692.6, 590.0)">r</text><text xml:space="preserve" font-family="Impact,Impact" font-weight="bold" font-size="18.0" fill="#221F1F" transform="matrix(1.14, 0.00, -0.00, -1.14, 699.9, 590.0)">e</text><text xml:space="preserve" font-family="Impact,Impact" font-weight="bold" font-size="18.0" fill="#221F1F" transform="matrix(1.14, 0.00, -0.00, -1.14, 710.3, 590.0)">s</text><text xml:space="preserve" font-family="Impact,Impact" font-weight="bold" font-size="18.0" fill="#221F1F" transform="matrix(1.14, 0.00, -0.00, -1.14, 720.0, 590.0)">s</text><text xml:space="preserve" font-family="Impact,Impact" font-weight="bold" font-size="41.6" fill="#FDFDFD" transform="matrix(1.14, 0.00, -0.00, -1.14, 633.4, 440.2)">8</text><text xml:space="preserve" font-family="Impact,Impact" font-weight="bold" font-size="41.6" fill="#FDFDFD" transform="matrix(1.14, 0.00, -0.00, -1.14, 658.7, 440.2)">9</text><text xml:space="preserve" font-family="Impact,Impact" font-weight="bold" font-size="41.6" fill="#FDFDFD" transform="matrix(1.14, 0.00, -0.00, -1.14, 684.2, 440.2)">%</text><text xml:space="preserve" font-family="Impact,Impact" font-weight="bold" font-size="41.6" fill="#FDFDFD" transform="matrix(1.14, 0.00, -0.00, -1.14, 775.5, 440.2)">2</text><text xml:space="preserve" font-family="Impact,Impact" font-weight="bold" font-size="41.6" fill="#FDFDFD" transform="matrix(1.14, 0.00, -0.00, -1.14, 799.2, 440.2)">5</text><text xml:space="preserve" font-family="Impact,Impact" font-weight="bold" font-size="21.1" fill="#221F1F" transform="matrix(1.14, 0.00, -0.00, -1.14, 646.2, 208.8)">Y</text><text xml:space="preserve" font-family="Impact,Impact" font-weight="bold" font-size="21.1" fill="#221F1F" transform="matrix(1.14, 0.00, -0.00, -1.14, 657.1, 208.8)">o</text><text xml:space="preserve" font-family="Impact,Impact" font-weight="bold" font-size="21.1" fill="#221F1F" transform="matrix(1.14, 0.00, -0.00, -1.14, 670.0, 208.8)">u</text><text xml:space="preserve" font-family="Impact,Impact" font-weight="bold" font-size="21.1" fill="#221F1F" transform="matrix(1.14, 0.00, -0.00, -1.14, 683.2, 208.8)"> </text><text xml:space="preserve" font-family="Impact,Impact" font-weight="bold" font-size="21.1" fill="#221F1F" transform="matrix(1.14, 0.00, -0.00, -1.14, 688.0, 208.8)">a</text><text xml:space="preserve" font-family="Impact,Impact" font-weight="bold" font-size="21.1" fill="#221F1F" transform="matrix(1.14, 0.00, -0.00, -1.14, 700.7, 208.8)">r</text><text xml:space="preserve" font-family="Impact,Impact" font-weight="bold" font-size="21.1" fill="#221F1F" transform="matrix(1.14, 0.00, -0.00, -1.14, 709.9, 208.8)">e</text><text xml:space="preserve" font-family="Impact,Impact" font-weight="bold" font-size="21.1" fill="#221F1F" transform="matrix(1.14, 0.00, -0.00, -1.14, 722.8, 208.8)"> </text><text xml:space="preserve" font-family="Impact,Impact" font-weight="bold" font-size="21.1" fill="#221F1F" transform="matrix(1.14, 0.00, -0.00, -1.14, 727.6, 208.8)">r</text><text xml:space="preserve" font-family="Impact,Impact" font-weight="bold" font-size="21.1" fill="#221F1F" transform="matrix(1.14, 0.00, -0.00, -1.14, 736.8, 208.8)">e</text><text xml:space="preserve" font-family="Impact,Impact" font-weight="bold" font-size="21.1" fill="#221F1F" transform="matrix(1.14, 0.00, -0.00, -1.14, 749.7, 208.8)">a</text><text xml:space="preserve" font-family="Impact,Impact" font-weight="bold" font-size="21.1" fill="#221F1F" transform="matrix(1.14, 0.00, -0.00, -1.14, 762.4, 208.8)">d</text><text xml:space="preserve" font-family="Impact,Impact" font-weight="bold" font-size="21.1" fill="#221F1F" transform="matrix(1.14, 0.00, -0.00, -1.14, 775.4, 208.8)">y</text><text xml:space="preserve" font-family="Impact,Impact" font-weight="bold" font-size="21.1" fill="#221F1F" transform="matrix(1.14, 0.00, -0.00, -1.14, 786.8, 208.8)"> </text><text xml:space="preserve" font-family="Impact,Impact" font-weight="bold" font-size="21.1" fill="#221F1F" transform="matrix(1.14, 0.00, -0.00, -1.14, 791.6, 208.8)">t</text><text xml:space="preserve" font-family="Impact,Impact" font-weight="bold" font-size="21.1" fill="#221F1F" transform="matrix(1.14, 0.00, -0.00, -1.14, 799.6, 208.8)">o</text><text xml:space="preserve" font-family="Impact,Impact" font-weight="bold" font-size="21.1" fill="#221F1F" transform="matrix(1.14, 0.00, -0.00, -1.14, 811.8, 208.8)"> </text><text xml:space="preserve" font-family="Impact,Impact" font-weight="bold" font-size="21.1" fill="#221F1F" transform="matrix(1.14, 0.00, -0.00, -1.14, 621.8, 180.0)">t</text><text xml:space="preserve" font-family="Impact,Impact" font-weight="bold" font-size="21.1" fill="#221F1F" transform="matrix(1.14, 0.00, -0.00, -1.14, 629.7, 180.0)">a</text><text xml:space="preserve" font-family="Impact,Impact" font-weight="bold" font-size="21.1" fill="#221F1F" transform="matrix(1.14, 0.00, -0.00, -1.14, 642.4, 180.0)">k</text><text xml:space="preserve" font-family="Impact,Impact" font-weight="bold" font-size="21.1" fill="#221F1F" transform="matrix(1.14, 0.00, -0.00, -1.14, 654.5, 180.0)">e</text><text xml:space="preserve" font-family="Impact,Impact" font-weight="bold" font-size="21.1" fill="#221F1F" transform="matrix(1.14, 0.00, -0.00, -1.14, 667.4, 180.0)"> </text><text xml:space="preserve" font-family="Impact,Impact" font-weight="bold" font-size="21.1" fill="#221F1F" transform="matrix(1.14, 0.00, -0.00, -1.14, 672.2, 180.0)">t</text><text xml:space="preserve" font-family="Impact,Impact" font-weight="bold" font-size="21.1" fill="#221F1F" transform="matrix(1.14, 0.00, -0.00, -1.14, 680.1, 180.0)">h</text><text xml:space="preserve" font-family="Impact,Impact" font-weight="bold" font-size="21.1" fill="#221F1F" transform="matrix(1.14, 0.00, -0.00, -1.14, 693.3, 180.0)">e</text><text xml:space="preserve" font-family="Impact,Impact" font-weight="bold" font-size="21.1" fill="#221F1F" transform="matrix(1.14, 0.00, -0.00, -1.14, 706.2, 180.0)"> </text><text xml:space="preserve" font-family="Impact,Impact" font-weight="bold" font-size="21.1" fill="#22A94A" transform="matrix(1.14, 0.00, -0.00, -1.14, 711.0, 180.0)">o</text><text xml:space="preserve" font-family="Impact,Impact" font-weight="bold" font-size="21.1" fill="#22A94A" transform="matrix(1.14, 0.00, -0.00, -1.14, 723.9, 180.0)">f</text><text xml:space="preserve" font-family="Impact,Impact" font-weight="bold" font-size="21.1" fill="#22A94A" transform="matrix(1.14, 0.00, -0.00, -1.14, 731.4, 180.0)">f</text><text xml:space="preserve" font-family="Impact,Impact" font-weight="bold" font-size="21.1" fill="#22A94A" transform="matrix(1.14, 0.00, -0.00, -1.14, 738.9, 180.0)">i</text><text xml:space="preserve" font-family="Impact,Impact" font-weight="bold" font-size="21.1" fill="#22A94A" transform="matrix(1.14, 0.00, -0.00, -1.14, 746.1, 180.0)">c</text><text xml:space="preserve" font-family="Impact,Impact" font-weight="bold" font-size="21.1" fill="#22A94A" transform="matrix(1.14, 0.00, -0.00, -1.14, 758.6, 180.0)">i</text><text xml:space="preserve" font-family="Impact,Impact" font-weight="bold" font-size="21.1" fill="#22A94A" transform="matrix(1.14, 0.00, -0.00, -1.14, 765.7, 180.0)">a</text><text xml:space="preserve" font-family="Impact,Impact" font-weight="bold" font-size="21.1" fill="#22A94A" transform="matrix(1.14, 0.00, -0.00, -1.14, 778.4, 180.0)">l</text><text xml:space="preserve" font-family="Impact,Impact" font-weight="bold" font-size="21.1" fill="#221F1F" transform="matrix(1.14, 0.00, -0.00, -1.14, 785.6, 180.0)"> </text><text xml:space="preserve" font-family="Impact,Impact" font-weight="bold" font-size="21.1" fill="#221F1F" transform="matrix(1.14, 0.00, -0.00, -1.14, 790.5, 180.0)">t</text><text xml:space="preserve" font-family="Impact,Impact" font-weight="bold" font-size="21.1" fill="#221F1F" transform="matrix(1.14, 0.00, -0.00, -1.14, 798.4, 180.0)">e</text><text xml:space="preserve" font-family="Impact,Impact" font-weight="bold" font-size="21.1" fill="#221F1F" transform="matrix(1.14, 0.00, -0.00, -1.14, 811.2, 180.0)">s</text><text xml:space="preserve" font-family="Impact,Impact" font-weight="bold" font-size="21.1" fill="#221F1F" transform="matrix(1.14, 0.00, -0.00, -1.14, 823.1, 180.0)">t</text><text xml:space="preserve" font-family="Impact,Impact" font-weight="bold" font-size="21.1" fill="#221F1F" transform="matrix(1.14, 0.00, -0.00, -1.14, 831.8, 180.0)">.</text></g></g><g><clipPath id="clip0x6000010a9ae0"><path d="M 566.0 86.0 L 892.0 86.0 L 892.0 682.0 L 566.0 682.0 Z M 566.0 86.0 "></path></clipPath><g clip-path="url(#clip0x6000010a9ae0)"><path d="M 791.7 308.8 C 791.7 343.4 763.6 371.5 729.0 371.5 C 694.4 371.5 666.3 343.4 666.3 308.8 C 666.3 274.1 694.4 246.1 729.0 246.1 C 763.6 246.1 791.7 274.1 791.7 308.8 " fill="#221F1F"></path><path d="M 700.5 313.1 C 700.5 313.1 694.8 318.7 689.2 313.1 L 687.1 311.0 C 687.1 311.0 681.5 305.4 687.1 299.7 L 709.5 277.3 C 709.5 277.3 715.2 271.7 720.8 277.3 L 722.9 279.4 C 722.9 279.4 728.5 285.0 722.9 290.7 Z M 700.5 313.1 " fill="#FDFDFD"></path><path d="M 0.0 0.0 C 0.0 0.0 -5.0 5.0 -9.9 0.0 L -11.8 -1.8 C -11.8 -1.8 -16.7 -6.8 -11.8 -11.8 L 8.0 -31.5 C 8.0 -31.5 12.9 -36.4 17.9 -31.5 L 19.7 -29.7 C 19.7 -29.7 24.7 -24.7 19.7 -19.7 L 0.0 0.0 Z M 0.0 0.0 " fill="none" stroke="#FDFDFD" stroke-width="0.73" transform="matrix(1.14, 0.00, 0.00, 1.14, 700.5, 313.1)"></path><path d="M 770.9 326.9 C 770.9 326.9 776.5 332.6 770.9 338.2 L 768.8 340.3 C 768.8 340.3 763.2 345.9 757.6 340.3 L 707.9 290.6 C 707.9 290.6 702.3 285.0 707.9 279.4 L 710.0 277.3 C 710.0 277.3 715.6 271.7 721.3 277.3 Z M 770.9 326.9 " fill="#FDFDFD"></path><path d="M 0.0 0.0 C 0.0 0.0 5.0 5.0 0.0 9.9 L -1.8 11.7 C -1.8 11.7 -6.8 16.7 -11.7 11.7 L -55.4 -31.9 C -55.4 -31.9 -60.4 -36.9 -55.4 -41.8 L -53.6 -43.7 C -53.6 -43.7 -48.6 -48.6 -43.7 -43.7 L 0.0 0.0 Z M 0.0 0.0 " fill="none" stroke="#FDFDFD" stroke-width="0.73" transform="matrix(1.14, 0.00, 0.00, 1.14, 770.9, 326.9)"></path></g></g><g><clipPath id="clip0x6080010b0080"><path d="M 566.0 86.0 L 892.0 86.0 L 892.0 682.0 L 566.0 682.0 Z M 566.0 86.0 "></path></clipPath><g clip-path="url(#clip0x6080010b0080)"><text xml:space="preserve" font-family="Impact,Impact" font-weight="bold" font-size="12.0" fill="#FDFDFD" transform="matrix(1.14, 0.00, -0.00, -1.14, 620.2, 417.7)">Y</text><text xml:space="preserve" font-family="Impact,Impact" font-weight="bold" font-size="12.0" fill="#FDFDFD" transform="matrix(1.14, 0.00, -0.00, -1.14, 626.1, 417.7)">o</text><text xml:space="preserve" font-family="Impact,Impact" font-weight="bold" font-size="12.0" fill="#FDFDFD" transform="matrix(1.14, 0.00, -0.00, -1.14, 633.0, 417.7)">u</text><text xml:space="preserve" font-family="Impact,Impact" font-weight="bold" font-size="12.0" fill="#FDFDFD" transform="matrix(1.14, 0.00, -0.00, -1.14, 640.2, 417.7)">r</text><text xml:space="preserve" font-family="Impact,Impact" font-weight="bold" font-size="12.0" fill="#FDFDFD" transform="matrix(1.14, 0.00, -0.00, -1.14, 645.0, 417.7)"> </text><text xml:space="preserve" font-family="Impact,Impact" font-weight="bold" font-size="12.0" fill="#FDFDFD" transform="matrix(1.14, 0.00, -0.00, -1.14, 647.4, 417.7)">a</text><text xml:space="preserve" font-family="Impact,Impact" font-weight="bold" font-size="12.0" fill="#FDFDFD" transform="matrix(1.14, 0.00, -0.00, -1.14, 654.3, 417.7)">v</text><text xml:space="preserve" font-family="Impact,Impact" font-weight="bold" font-size="12.0" fill="#FDFDFD" transform="matrix(1.14, 0.00, -0.00, -1.14, 660.3, 417.7)">e</text><text xml:space="preserve" font-family="Impact,Impact" font-weight="bold" font-size="12.0" fill="#FDFDFD" transform="matrix(1.14, 0.00, -0.00, -1.14, 667.3, 417.7)">r</text><text xml:space="preserve" font-family="Impact,Impact" font-weight="bold" font-size="12.0" fill="#FDFDFD" transform="matrix(1.14, 0.00, -0.00, -1.14, 672.1, 417.7)">a</text><text xml:space="preserve" font-family="Impact,Impact" font-weight="bold" font-size="12.0" fill="#FDFDFD" transform="matrix(1.14, 0.00, -0.00, -1.14, 679.0, 417.7)">g</text><text xml:space="preserve" font-family="Impact,Impact" font-weight="bold" font-size="12.0" fill="#FDFDFD" transform="matrix(1.14, 0.00, -0.00, -1.14, 686.1, 417.7)">e</text><text xml:space="preserve" font-family="Impact,Impact" font-weight="bold" font-size="12.0" fill="#FDFDFD" transform="matrix(1.14, 0.00, -0.00, -1.14, 693.1, 417.7)"> </text><text xml:space="preserve" font-family="Impact,Impact" font-weight="bold" font-size="12.0" fill="#FDFDFD" transform="matrix(1.14, 0.00, -0.00, -1.14, 695.5, 417.7)">s</text><text xml:space="preserve" font-family="Impact,Impact" font-weight="bold" font-size="12.0" fill="#FDFDFD" transform="matrix(1.14, 0.00, -0.00, -1.14, 701.9, 417.7)">c</text><text xml:space="preserve" font-family="Impact,Impact" font-weight="bold" font-size="12.0" fill="#FDFDFD" transform="matrix(1.14, 0.00, -0.00, -1.14, 708.6, 417.7)">o</text><text xml:space="preserve" font-family="Impact,Impact" font-weight="bold" font-size="12.0" fill="#FDFDFD" transform="matrix(1.14, 0.00, -0.00, -1.14, 715.6, 417.7)">r</text><text xml:space="preserve" font-family="Impact,Impact" font-weight="bold" font-size="12.0" fill="#FDFDFD" transform="matrix(1.14, 0.00, -0.00, -1.14, 720.5, 417.7)">e</text><text xml:space="preserve" font-family="Impact,Impact" font-weight="bold" font-size="12.0" fill="#FDFDFD" transform="matrix(1.14, 0.00, -0.00, -1.14, 727.5, 417.7)"> </text><text xml:space="preserve" font-family="Impact,Impact" font-weight="bold" font-size="12.0" fill="#FDFDFD" transform="matrix(1.14, 0.00, -0.00, -1.14, 621.1, 401.3)">f</text><text xml:space="preserve" font-family="Impact,Impact" font-weight="bold" font-size="12.0" fill="#FDFDFD" transform="matrix(1.14, 0.00, -0.00, -1.14, 625.0, 401.3)">o</text><text xml:space="preserve" font-family="Impact,Impact" font-weight="bold" font-size="12.0" fill="#FDFDFD" transform="matrix(1.14, 0.00, -0.00, -1.14, 632.0, 401.3)">r</text><text xml:space="preserve" font-family="Impact,Impact" font-weight="bold" font-size="12.0" fill="#FDFDFD" transform="matrix(1.14, 0.00, -0.00, -1.14, 636.9, 401.3)"> </text><text xml:space="preserve" font-family="Impact,Impact" font-weight="bold" font-size="12.0" fill="#FDFDFD" transform="matrix(1.14, 0.00, -0.00, -1.14, 639.3, 401.3)">t</text><text xml:space="preserve" font-family="Impact,Impact" font-weight="bold" font-size="12.0" fill="#FDFDFD" transform="matrix(1.14, 0.00, -0.00, -1.14, 643.4, 401.3)">h</text><text xml:space="preserve" font-family="Impact,Impact" font-weight="bold" font-size="12.0" fill="#FDFDFD" transform="matrix(1.14, 0.00, -0.00, -1.14, 650.6, 401.3)">e</text><text xml:space="preserve" font-family="Impact,Impact" font-weight="bold" font-size="12.0" fill="#FDFDFD" transform="matrix(1.14, 0.00, -0.00, -1.14, 657.6, 401.3)"> </text><text xml:space="preserve" font-family="Impact,Impact" font-weight="bold" font-size="12.0" fill="#FDFDFD" transform="matrix(1.14, 0.00, -0.00, -1.14, 660.0, 401.3)">l</text><text xml:space="preserve" font-family="Impact,Impact" font-weight="bold" font-size="12.0" fill="#FDFDFD" transform="matrix(1.14, 0.00, -0.00, -1.14, 663.7, 401.3)">a</text><text xml:space="preserve" font-family="Impact,Impact" font-weight="bold" font-size="12.0" fill="#FDFDFD" transform="matrix(1.14, 0.00, -0.00, -1.14, 670.6, 401.3)">s</text><text xml:space="preserve" font-family="Impact,Impact" font-weight="bold" font-size="12.0" fill="#FDFDFD" transform="matrix(1.14, 0.00, -0.00, -1.14, 677.0, 401.3)">t</text><text xml:space="preserve" font-family="Impact,Impact" font-weight="bold" font-size="12.0" fill="#FDFDFD" transform="matrix(1.14, 0.00, -0.00, -1.14, 681.1, 401.3)"> </text><text xml:space="preserve" font-family="Impact,Impact" font-weight="bold" font-size="12.0" fill="#FDFDFD" transform="matrix(1.14, 0.00, -0.00, -1.14, 683.6, 401.3)">1</text><text xml:space="preserve" font-family="Impact,Impact" font-weight="bold" font-size="12.0" fill="#FDFDFD" transform="matrix(1.14, 0.00, -0.00, -1.14, 688.7, 401.3)">0</text><text xml:space="preserve" font-family="Impact,Impact" font-weight="bold" font-size="12.0" fill="#FDFDFD" transform="matrix(1.14, 0.00, -0.00, -1.14, 696.1, 401.3)"> </text><text xml:space="preserve" font-family="Impact,Impact" font-weight="bold" font-size="12.0" fill="#FDFDFD" transform="matrix(1.14, 0.00, -0.00, -1.14, 698.5, 401.3)">t</text><text xml:space="preserve" font-family="Impact,Impact" font-weight="bold" font-size="12.0" fill="#FDFDFD" transform="matrix(1.14, 0.00, -0.00, -1.14, 702.6, 401.3)">e</text><text xml:space="preserve" font-family="Impact,Impact" font-weight="bold" font-size="12.0" fill="#FDFDFD" transform="matrix(1.14, 0.00, -0.00, -1.14, 709.6, 401.3)">s</text><text xml:space="preserve" font-family="Impact,Impact" font-weight="bold" font-size="12.0" fill="#FDFDFD" transform="matrix(1.14, 0.00, -0.00, -1.14, 716.0, 401.3)">t</text><text xml:space="preserve" font-family="Impact,Impact" font-weight="bold" font-size="12.0" fill="#FDFDFD" transform="matrix(1.14, 0.00, -0.00, -1.14, 720.2, 401.3)">s</text><text xml:space="preserve" font-family="Impact,Impact" font-weight="bold" font-size="12.0" fill="#FDFDFD" transform="matrix(1.14, 0.00, -0.00, -1.14, 786.7, 417.7)">T</text><text xml:space="preserve" font-family="Impact,Impact" font-weight="bold" font-size="12.0" fill="#FDFDFD" transform="matrix(1.14, 0.00, -0.00, -1.14, 793.0, 417.7)">o</text><text xml:space="preserve" font-family="Impact,Impact" font-weight="bold" font-size="12.0" fill="#FDFDFD" transform="matrix(1.14, 0.00, -0.00, -1.14, 799.9, 417.7)">t</text><text xml:space="preserve" font-family="Impact,Impact" font-weight="bold" font-size="12.0" fill="#FDFDFD" transform="matrix(1.14, 0.00, -0.00, -1.14, 804.1, 417.7)">a</text><text xml:space="preserve" font-family="Impact,Impact" font-weight="bold" font-size="12.0" fill="#FDFDFD" transform="matrix(1.14, 0.00, -0.00, -1.14, 811.0, 417.7)">l</text><text xml:space="preserve" font-family="Impact,Impact" font-weight="bold" font-size="12.0" fill="#FDFDFD" transform="matrix(1.14, 0.00, -0.00, -1.14, 814.7, 417.7)"> </text><text xml:space="preserve" font-family="Impact,Impact" font-weight="bold" font-size="12.0" fill="#FDFDFD" transform="matrix(1.14, 0.00, -0.00, -1.14, 769.6, 401.3)">t</text><text xml:space="preserve" font-family="Impact,Impact" font-weight="bold" font-size="12.0" fill="#FDFDFD" transform="matrix(1.14, 0.00, -0.00, -1.14, 773.8, 401.3)">e</text><text xml:space="preserve" font-family="Impact,Impact" font-weight="bold" font-size="12.0" fill="#FDFDFD" transform="matrix(1.14, 0.00, -0.00, -1.14, 780.7, 401.3)">s</text><text xml:space="preserve" font-family="Impact,Impact" font-weight="bold" font-size="12.0" fill="#FDFDFD" transform="matrix(1.14, 0.00, -0.00, -1.14, 787.2, 401.3)">t</text><text xml:space="preserve" font-family="Impact,Impact" font-weight="bold" font-size="12.0" fill="#FDFDFD" transform="matrix(1.14, 0.00, -0.00, -1.14, 791.3, 401.3)">s</text><text xml:space="preserve" font-family="Impact,Impact" font-weight="bold" font-size="12.0" fill="#FDFDFD" transform="matrix(1.14, 0.00, -0.00, -1.14, 797.7, 401.3)"> </text><text xml:space="preserve" font-family="Impact,Impact" font-weight="bold" font-size="12.0" fill="#FDFDFD" transform="matrix(1.14, 0.00, -0.00, -1.14, 800.1, 401.3)">t</text><text xml:space="preserve" font-family="Impact,Impact" font-weight="bold" font-size="12.0" fill="#FDFDFD" transform="matrix(1.14, 0.00, -0.00, -1.14, 804.3, 401.3)">a</text><text xml:space="preserve" font-family="Impact,Impact" font-weight="bold" font-size="12.0" fill="#FDFDFD" transform="matrix(1.14, 0.00, -0.00, -1.14, 811.2, 401.3)">k</text><text xml:space="preserve" font-family="Impact,Impact" font-weight="bold" font-size="12.0" fill="#FDFDFD" transform="matrix(1.14, 0.00, -0.00, -1.14, 817.7, 401.3)">e</text><text xml:space="preserve" font-family="Impact,Impact" font-weight="bold" font-size="12.0" fill="#FDFDFD" transform="matrix(1.14, 0.00, -0.00, -1.14, 824.7, 401.3)">n</text></g></g></g></g></g></g></svg>